<?xml version="1.0" standalone="no"?>
<!DOCTYPE svg PUBLIC "-//W3C//DTD SVG 1.1//EN" "http://www.w3.org/Graphics/SVG/1.1/DTD/svg11.dtd" >
<svg xmlns="http://www.w3.org/2000/svg">
<metadata>
Created by FontForge 20120731 at Mon Nov  9 20:03:51 2015
 By Ads
</metadata>
<defs>
<font id="iconfont" horiz-adv-x="1024" >
  <font-face 
    font-family="iconfont"
    font-weight="500"
    font-stretch="normal"
    units-per-em="1024"
    panose-1="2 0 6 3 0 0 0 0 0 0"
    ascent="812"
    descent="-212"
    x-height="792"
    bbox="0 -224 1050.95 812"
    underline-thickness="50"
    underline-position="-100"
    unicode-range="U+0078-E68A"
  />
<missing-glyph horiz-adv-x="374" 
d="M34 0v682h272v-682h-272zM68 34h204v614h-204v-614z" />
    <glyph glyph-name=".notdef" horiz-adv-x="374" 
d="M34 0v682h272v-682h-272zM68 34h204v614h-204v-614z" />
    <glyph glyph-name=".null" horiz-adv-x="0" 
 />
    <glyph glyph-name="nonmarkingreturn" horiz-adv-x="341" 
 />
    <glyph glyph-name="x" unicode="x" horiz-adv-x="1001" 
d="M281 543q-27 -1 -53 -1h-83q-18 0 -36.5 -6t-32.5 -18.5t-23 -32t-9 -45.5v-76h912v41q0 16 -0.5 30t-0.5 18q0 13 -5 29t-17 29.5t-31.5 22.5t-49.5 9h-133v-97h-438v97zM955 310v-52q0 -23 0.5 -52t0.5 -58t-10.5 -47.5t-26 -30t-33 -16t-31.5 -4.5q-14 -1 -29.5 -0.5
t-29.5 0.5h-32l-45 128h-439l-44 -128h-29h-34q-20 0 -45 1q-25 0 -41 9.5t-25.5 23t-13.5 29.5t-4 30v167h911zM163 247q-12 0 -21 -8.5t-9 -21.5t9 -21.5t21 -8.5q13 0 22 8.5t9 21.5t-9 21.5t-22 8.5zM316 123q-8 -26 -14 -48q-5 -19 -10.5 -37t-7.5 -25t-3 -15t1 -14.5
t9.5 -10.5t21.5 -4h37h67h81h80h64h36q23 0 34 12t2 38q-5 13 -9.5 30.5t-9.5 34.5q-5 19 -11 39h-368zM336 498v228q0 11 2.5 23t10 21.5t20.5 15.5t34 6h188q31 0 51.5 -14.5t20.5 -52.5v-227h-327z" />
    <glyph glyph-name="uniE600" unicode="&#xe600;" 
d="M820 15q0 -25 -10 -47t-27.5 -38.5t-41 -26t-51.5 -9.5h-357q-28 0 -51.5 9.5t-41 26t-27.5 38.5t-10 47v675q0 25 10 47.5t27.5 39t41 26t51.5 9.5h357q28 0 51.5 -9.5t41 -26t27.5 -39t10 -47.5v-675zM739 642h-456v-578h456v578zM511 36q-21 0 -36.5 -15t-15.5 -37
t15.5 -37.5t36.5 -15.5q22 0 37 15.5t15 37.5t-15 37t-37 15zM592 727q0 8 -5 12.5t-12 4.5h-128q-5 0 -10.5 -4.5t-5.5 -12.5t5 -12.5t11 -4.5h128q7 0 12 4.5t5 12.5z" />
    <glyph glyph-name="uniE601" unicode="&#xe601;" 
d="M534 544q33 42 71 75q33 28 74.5 50.5t86.5 19.5q63 -5 105.5 -30t68 -63.5t34.5 -87t6 -100t-18 -98t-37 -87t-48.5 -74.5t-53.5 -62q-41 -42 -85.5 -78.5t-85 -62.5t-73.5 -41.5t-52 -15.5q-20 -1 -52 14.5t-69.5 41.5t-79.5 62t-83 76q-27 26 -57.5 59.5t-58 74
t-47 87.5t-21.5 100.5t11.5 100t40 83.5t65.5 62t88 35q25 5 49.5 1.5t48 -12t45 -22t40.5 -27.5q46 -34 87 -81z" />
    <glyph glyph-name="uniE602" unicode="&#xe602;" 
d="M187 741q29 0 49 -19.5t20 -47.5v-52q0 -29 -20 -49t-49 -20h-54q-28 0 -47.5 20t-19.5 49v52q0 28 19.5 47.5t47.5 19.5h54zM890 741q28 0 47.5 -19.5t19.5 -47.5v-52q0 -29 -19.5 -49t-47.5 -20h-437q-29 0 -49 20t-20 49v52q0 28 20 47.5t49 19.5h437zM187 423
q29 0 49 -20t20 -49v-52q0 -28 -20 -48t-49 -20h-54q-28 0 -47.5 20t-19.5 48v52q0 29 19.5 49t47.5 20h54zM890 423q28 0 47.5 -20t19.5 -49v-52q0 -28 -19.5 -48t-47.5 -20h-437q-29 0 -49 20t-20 48v52q0 29 20 49t49 20h437zM187 103q29 0 49 -20t20 -47v-52
q0 -29 -20 -49t-49 -20h-54q-28 0 -47.5 20t-19.5 49v52q0 27 19.5 47t47.5 20h54zM890 103q28 0 47.5 -20t19.5 -47v-52q0 -29 -19.5 -49t-47.5 -20h-437q-29 0 -49 20t-20 49v52q0 27 20 47t49 20h437z" />
    <glyph glyph-name="uniE603" unicode="&#xe603;" 
d="M346 5q20 0 37 -7t30 -20t20.5 -30.5t7.5 -37t-7.5 -36.5t-20.5 -30t-30 -20.5t-37 -7.5t-37.5 7.5t-30.5 20.5t-20.5 30t-7.5 36.5t7.5 37t20.5 30.5t30.5 20t37.5 7zM772.5 3q19.5 0 37 -7t30.5 -20t20.5 -30.5t7.5 -37t-7.5 -36.5t-20.5 -30t-30.5 -20.5t-37 -7.5
t-37 7.5t-30.5 20.5t-20.5 30t-7.5 36.5t7.5 37t20.5 30.5t30.5 20t37 7zM944 585q29 0 45 -8t22.5 -19t6 -24t-3.5 -22t-13.5 -38t-22 -63t-23.5 -68t-19 -53q-13 -41 -33 -57t-50 -16h-36h-65h-86h-97h-254l15 -92h517q49 0 49 -42q0 -21 -9.5 -35.5t-38.5 -14.5h-49h-94
h-119h-120h-99h-56q-20 0 -34 9t-23 24t-15 32.5t-9 32.5q-1 6 -5.5 29.5t-11 59t-15 79t-16.5 87.5q-19 103 -44 230h-77q-15 0 -25 8t-17 18.5t-9.5 23t-2.5 22.5q0 21 14 34t37 13h22h21h26h35q20 0 32.5 -6t19.5 -15.5t10 -19.5t5 -17q2 -8 4.5 -23t4.5 -30q3 -19 6 -39
h700zM867 617h-374l135 136q23 23 51.5 23.5t51.5 -22.5z" />
    <glyph glyph-name="uniE604" unicode="&#xe604;" 
d="M362 429.5q0 -20.5 -14.5 -35t-35 -14.5t-35 14.5t-14.5 35t14.5 35t35 14.5t35 -14.5t14.5 -35zM362 429.5q0 -20.5 -14.5 -35t-35 -14.5t-35 14.5t-14.5 35t14.5 35t35 14.5t35 -14.5t14.5 -35zM797 429q0 -20 -14.5 -34.5t-35 -14.5t-35 14.5t-14.5 35t14.5 35
t34.5 14.5q14 0 25.5 -7t18 -18t6.5 -25zM852 -127h-653q-41 0 -70.5 29t-29.5 70v508q0 42 29.5 71t70.5 29h653q42 0 71 -29t29 -71v-508q0 -20 -8 -38.5t-21.5 -31.5t-31.5 -21t-39 -8zM199 526q-7 0 -14 -2.5t-12.5 -6.5t-10 -9.5t-6.5 -12.5t-2 -15v-508
q0 -18 13 -31.5t32 -13.5h653q19 0 32.5 13.5t13.5 31.5v508q0 10 -4 18t-10 14.5t-14.5 10t-17.5 3.5h-653zM771 435h-55v227q0 6 -1.5 12t-4.5 11t-7 9t-9 7t-11 4.5t-12 1.5h-290q-19 0 -32.5 -13t-13.5 -32v-227h-54v227q0 27 13.5 50t36.5 36.5t50 13.5h290
q41 0 70.5 -29.5t29.5 -70.5v-227z" />
    <glyph glyph-name="uniE605" unicode="&#xe605;" 
d="M628 392q116 -1 357 -5q-2 9 -6.5 25t-6.5 23q-43 -33 -138 -106t-145 -111q-4 -3 -6.5 -6t-4.5 -7t-2 -8t1 -9q19 -62 55 -177t51 -164q6 4 12 9t13.5 11t12.5 9q-42 29 -94.5 65t-106.5 73t-94 64q-2 2 -4.5 3t-5.5 1h-6q-3 0 -5.5 -1t-4.5 -3l-292 -206q6 -4 18.5 -14
t19.5 -15q36 124 101 343q1 4 1 8.5t-2 8t-4.5 6.5t-6.5 6q-45 34 -140.5 105.5t-145.5 108.5q-2 -7 -4 -15t-4.5 -17.5t-4.5 -15.5q108 3 357 10q9 0 15.5 5t9.5 14q50 146 115 338h-49q4 -13 119 -337q5 -15 20 -17.5t25 7t5 24.5q-11 31 -24 66.5t-25 68.5l-22 66
q-12 33 -25 69t-24 67q-3 8 -10 13t-14.5 5t-14.5 -5t-10 -13q-82 -242 -115 -339q4 4 13 10.5t11 8.5q-250 -7 -357 -10q-20 0 -24 -18t11 -30q197 -147 286 -213q-2 4 -6 14l-6 15q-16 -56 -49.5 -170.5t-51.5 -172.5q-4 -16 10 -27.5t28 -1.5q162 114 291 205
q-9 -4 -13.5 -3.5t-8.5 2.5v-1q4 -2 10 -6q15 -10 33 -23q13 -8 32.5 -21.5t37 -25.5t31.5 -22q78 -53 148 -101q14 -10 28 1.5t10 27.5q-14 43 -50 160t-56 181l-12 -29q139 107 283 218q15 11 11 29.5t-24 18.5q-232 3 -357 5q-16 0 -22.5 -13t0 -26t22.5 -13z" />
    <glyph glyph-name="uniE606" unicode="&#xe606;" 
d="M751 29h-496v684h496v-684zM306 80h394v581h-394v-581zM548 -56q0 -7 -2 -13.5t-6 -11.5t-9 -9t-11.5 -6t-13.5 -2q-17 0 -29.5 12.5t-12.5 29.5q0 11 6 21t15.5 15.5t20.5 5.5q18 0 30 -12.5t12 -29.5zM749 -194h-492q-12 0 -23.5 3.5t-21 9t-17.5 13.5t-13.5 17.5
t-8.5 21t-3 22.5v818q0 36 25.5 61.5t61.5 25.5h492q24 0 44 -11.5t32 -32t12 -43.5v-818q0 -36 -26 -61.5t-62 -25.5zM257 747q-5 0 -9.5 -1.5t-8.5 -4t-7.5 -5.5t-6 -7t-3.5 -8.5t-1 -9.5v-818q0 -14 10.5 -24.5t25.5 -10.5h492q15 0 25.5 10.5t10.5 24.5v818q0 25 -23 33
q-6 3 -13 3h-492z" />
    <glyph glyph-name="uniE607" unicode="&#xe607;" 
d="M881 292l-483 520h-223l483 -520l-483 -484h223z" />
    <glyph glyph-name="uniE608" unicode="&#xe608;" 
d="M658 -192h223l-483 484l483 520h-223l-483 -520z" />
    <glyph glyph-name="uniE609" unicode="&#xe609;" 
d="M861 555q4 -8 6 -18q1 -4 1.5 -7.5t0.5 -7.5v-8q0 -6 -1 -11.5t-3 -11.5q-4 -12 -14 -22q-11 -11 -20 -19l-7 -8l-7 -6q-7 -8 -14 -13l-167 167q11 10 26 24q14 14 24 22q4 3 8.5 5.5t9 4.5t8.5 4q14 4 27 3.5t25 -4t21 -8.5q18 -10 41 -34.5t35 -51.5zM165 119
q6 6 25.5 26t49.5 49l65 66l72 72l192 192l167 -168l-192 -192l-71 -72q-36 -35 -64.5 -64t-47.5 -48t-22 -21q-9 -8 -20.5 -17t-24.5 -15l-5 -3q-3 -1 -6.5 -2.5t-7.5 -3t-8.5 -3t-9.5 -3.5q-24 -9 -50 -17q-13 -5 -25.5 -8.5t-24.5 -6.5q-24 -6 -35 -8q-25 -3 -33 7t-4 33
q2 13 8.5 36.5t14 49t15 47t11.5 29.5q5 12 12 22.5t19 22.5zM165 119zM463 -49h80v-80h-80v80zM626 -49h80v-80h-80v80zM789 -49h80v-80h-80v80z" />
    <glyph glyph-name="uniE60A" unicode="&#xe60a;" 
d="M975 124l-448 448l-449 -449v-118h1l448 448l448 -448v119z" />
    <glyph glyph-name="uniE60B" unicode="&#xe60b;" 
d="M543 -32q-93 0 -172.5 46t-125.5 125.5t-46 172.5q0 47 12.5 91.5t34.5 82t54 69.5t69.5 54t82 34.5t91.5 12.5q93 0 172.5 -46t125.5 -125.5t46 -172.5q0 -140 -97 -240q-97 -99 -235 -104h-12zM543 601q-120 0 -204.5 -84.5t-84.5 -204.5t84.5 -204.5t204.5 -84.5
q79 0 145.5 38.5t105 105t38.5 145.5q0 120 -84.5 204.5t-204.5 84.5zM496 232l-22 168v91h138v-91l-22 -168h-94zM597 106h-105v70h105v-70z" />
    <glyph glyph-name="uniE60C" unicode="&#xe60c;" 
d="M527.5 -34q-103.5 0 -191 51t-138 138.5t-50.5 190.5t50.5 190.5t138 138.5t191.5 51q77 0 147 -30.5t121 -81t81 -121t30 -147.5q0 -103 -50.5 -190.5t-138 -138.5t-191 -51zM684 368h-45v45h-44v44h-45v45h-45v45h-89v-45h44v-45h45v-44h45v-45h45v-45h-45v-44h-45v-45
h-45v-45h-44v-44h89v44h45v45h45v45h44v44h45v45z" />
    <glyph glyph-name="uniE60D" unicode="&#xe60d;" 
d="M829 382v-112h-112v-111h-111v-112h-112v112h-111v111h-112v112h-111v223h111v-112h112v-111h111v-112h112v112h111v111h112v112h112v-223h-112z" />
    <glyph glyph-name="uniE60E" unicode="&#xe60e;" 
d="M381 6v155h544v-155h-544zM381 394h544v-155h-544v155zM381 627h544v-155h-544v155zM148 161h156v-155h-156v155zM148 394h156v-155h-156v155zM148 627h156v-155h-156v155z" />
    <glyph glyph-name="uniE60F" unicode="&#xe60f;" 
d="M672 291v-104h-103v-103h-104v-104h-104v726h104v-104h104v-104h103v-103h104v-104h-104z" />
    <glyph glyph-name="uniE610" unicode="&#xe610;" 
d="M530 763q-91 0 -174 -35t-142.5 -95t-95 -142.5t-35.5 -173.5t35.5 -174t95 -142.5t142.5 -95t174 -35.5t173.5 35.5t142.5 95t95.5 142.5t35.5 174q0 170 -114 297q-109 123 -271 145q-31 4 -62 4zM408.5 88q-14.5 0 -24.5 10t-10 24t10 24.5t24 10.5q10 0 18 -5
t12.5 -12.5t4.5 -17.5q0 -14 -10 -24t-24.5 -10zM618.5 78q-19.5 0 -33.5 14t-14 33q0 13 6.5 24t17 17.5t23.5 6.5t24 -6.5t17 -17.5t6 -24q0 -19 -13.5 -33t-33 -14zM828 496q0 -7 -3.5 -12.5t-9.5 -8.5t-13 -3h-81l-93 -262q-2 -8 -9 -12.5t-15 -3.5h-2h-248q-5 0 -9.5 2
t-8 5t-5.5 7.5t-2 9.5v7q0 10 7.5 17.5t17.5 7.5h229l12 34h-283q-4 0 -8.5 2t-8 5t-5.5 7.5t-2 9.5v8q0 10 7 17t17 7h303l12 34h-340q-5 0 -9.5 2t-8 5t-5 7.5t-1.5 9.5v7q0 10 7 17.5t17 7.5h360l29 82q5 15 21 16h4h101q7 0 13 -3t9.5 -8.5t3.5 -12.5v-8z" />
    <glyph glyph-name="uniE611" unicode="&#xe611;" 
d="M891 317q36 -43 1 -82l-254 -255q-8 -6 -17.5 -9t-19 -2t-18 4t-14.5 9q-92 92 -164 165l-60 61q-31 30 -54 53q-24 25 -38 39l-16 15q0 1 -1 2l-2 2q-1 1 -2 3q-2 3 -4 6.5t-4 7.5q-4 9 -7 19.5t-3 22.5v15v29q0 8 0.5 17.5t0.5 19.5v11v10v10v11q1 51 2 111
q1 5 1.5 9.5t1.5 9.5q1 3 2 5.5t2 4.5t3 4.5t4 4.5q8 8 18 11q5 2 9.5 2.5t9.5 0.5h248q2 1 12 0h6q2 0 3.5 -0.5t2.5 -1.5q3 0 5.5 -1.5t5.5 -3.5q6 -4 10 -9zM333 497q21 0 36 15t15 36t-15 36t-36 15t-36.5 -15t-15.5 -36t15.5 -36t36.5 -15zM333 497z" />
    <glyph glyph-name="uniE612" unicode="&#xe612;" 
d="M726 367v100h-101v100h-100v100h-100v100h-200v-100h100v-100h100v-100h100v-100h100v-100h-100v-100h-100v-100h-100v-100h-100v-101h200v101h100v100h100v100h101v100h100v100h-100z" />
    <glyph glyph-name="uniE613" unicode="&#xe613;" 
d="M302 768h128v-128h-128v128zM430 640h128v-128h-128v128zM558 512h127v-127h-127v127zM685 385h128v-128h-128v128zM558 257h127v-128h-127v128zM430 129h128v-128h-128v128zM302 -7v-119v-8h128v8v119v8h-128v-8z" />
    <glyph glyph-name="uniE614" unicode="&#xe614;" 
d="M511 -115q-3 0 -5.5 1t-4.5 2q-40 20 -95 61.5t-115.5 101t-111.5 125t-84.5 140.5t-33.5 139q0 35 7 66.5t19 55.5t29 45t36.5 36t41 26.5t44 18.5t43.5 10.5t42 3.5q55 0 104 -28.5t84 -63.5q92 92 188 92q33 0 67.5 -8.5t70 -28.5t62.5 -49.5t44.5 -75t17.5 -100.5
q0 -64 -33.5 -139t-85 -140.5t-112 -125t-115 -101t-94.5 -61.5zM323 672q-28 0 -56.5 -7t-57.5 -24t-52 -41t-37 -61.5t-14 -83.5q0 -55 29.5 -121t75.5 -126t101 -115.5t106.5 -96.5t92.5 -63q41 22 92.5 63t106.5 96.5t101 115.5t75.5 126t29.5 121q0 46 -14.5 83.5
t-37 61.5t-51.5 41t-57.5 24t-56.5 7q-25 0 -52.5 -10t-47 -23t-37 -28t-25.5 -23.5t-9 -10.5q-7 -8 -17 -8q-5 0 -9.5 2.5t-7.5 5.5q-2 2 -10 10.5t-25 23.5t-37 28t-47 23t-52 10z" />
    <glyph glyph-name="uniE615" unicode="&#xe615;" 
d="M989 425h-357l134 133q-20 20 -43 37t-48 29.5t-51 21t-54 13t-57 4.5q-47 0 -92 -12t-85.5 -35.5t-74.5 -57.5q-10 -10 -19 -20.5t-17.5 -22t-15.5 -23.5t-13.5 -24t-12 -25t-9.5 -26.5t-7.5 -27t-5.5 -27t-3 -28t-1 -28.5q0 -71 27 -136.5t77.5 -116t115.5 -77.5
t136.5 -27t136.5 27t116 78q8 8 16 17l89 -78q-66 -76 -159 -119t-199 -43q-96 0 -184 37.5t-152 101t-101.5 151.5t-37.5 185t37.5 185t101.5 151.5t152 101.5t184.5 38t183.5 -37t153 -103l139 140v-357z" />
    <glyph glyph-name="uniE616" unicode="&#xe616;" 
d="M724 290l-263 282h-121l262 -282l-262 -263h121z" />
    <glyph glyph-name="uniE617" unicode="&#xe617;" 
d="M902 419v-236h-273v-273h-236v273h-273v236h273v273h236v-273h273z" />
    <glyph glyph-name="uniE618" unicode="&#xe618;" 
d="M510 513q-27 66 -73 109t-96 56.5t-101 2.5t-90.5 -44.5t-63.5 -94t-21 -137.5q1 -25 7 -49.5t15.5 -45t23 -40t28.5 -36t33 -33.5t35.5 -30.5t36.5 -28t35.5 -26.5t34 -26t30.5 -26q46 -43 97.5 -87t69.5 -62q12 12 64 56t103 93q18 19 50 44.5t59 46t57.5 49.5
t52.5 57.5t38.5 66.5t20.5 79q10 113 -42.5 186t-128 87t-155.5 -29t-120 -138z" />
    <glyph glyph-name="uniE619" unicode="&#xe619;" 
d="M285 685v-74q11 0 21.5 -2t21 -5t20 -8t19 -11.5t18 -14.5t17 -17.5t15.5 -20.5t13.5 -23t12.5 -25q8 -20 27 -32.5t41 -12.5t40.5 12.5t27.5 32.5q18 43 47.5 72t58.5 40t58 11q60 0 99 -42q48 -53 39 -151q-3 -28 -15 -55.5t-25.5 -47.5t-39.5 -45t-42.5 -38.5
t-48.5 -38.5q-59 -46 -84 -70q-51 -49 -114 -103q-1 1 -14 12q-17 15 -29 25t-32.5 28.5t-41.5 38.5q-25 23 -83 66q-23 17 -35 26.5t-33 26.5t-32.5 29t-26.5 30t-23 34t-14 35.5t-6 40.5q-5 106 50 163q39 40 93 40v74zM285 685q-44 0 -84 -18.5t-70.5 -53t-48 -88.5
t-14.5 -120q1 -49 21 -93t53.5 -78.5t65.5 -60.5t74 -57t63 -50q46 -43 97 -87t70 -62q12 12 35 31t57.5 49.5t72.5 68.5q21 20 61.5 51.5t72 58t65 61.5t54 78t24.5 92q5 52 -4 97t-29 77t-48 55t-61 34t-69 11q-13 0 -27 -1.5t-27.5 -5t-26.5 -8.5t-26 -11.5t-25 -15
t-23.5 -18.5t-22.5 -22t-20.5 -25.5t-18 -28.5t-15.5 -32q-35 84 -96.5 128t-129.5 44z" />
    <glyph glyph-name="uniE61A" unicode="&#xe61a;" 
d="M464 -117q-46 42 -96 86q-26 23 -50 43.5t-45 39.5q-26 21 -51.5 42.5t-51.5 42.5q-5 -1 -10 -1h-9q-8 -1 -17 -1h-16q-24 0 -39 15q-8 7 -11.5 16t-3.5 19v226h1l-1 1q0 25 15.5 41t38.5 16h52q82 70 149 125q29 25 57 47q13 12 26 22.5t24 19.5q23 19 37 32
q16 12 19 15q27 19 43.5 17.5t26 -16t13 -35t3.5 -37.5v-726q0 -17 -6 -36t-19 -30.5t-33 -9.5q-10 1 -21.5 7.5t-24.5 18.5zM754 415q18 -26 29.5 -52.5t11.5 -63.5q0 -36 -12 -65q-2 -5 -4.5 -10.5t-5.5 -11t-6 -10.5t-6.5 -10t-6.5 -10q-4 -5 -8 -9l-8 -8q-4 -4 -9 -6
t-11 -2q-16 0 -28 12q-3 4 -5.5 8.5t-4 9t-1.5 10.5q0 7 3 14h-1q5 10 11 19t12 18.5t10 21.5q2 6 3 13t1 16q0 16 -4 28l-10 22q-2 2 -4 5l-2 4l-4 6l-2 4l-4 6q-2 3 -3.5 6t-2.5 7q-3 6 -3 14q0 16 11.5 27.5t27.5 11.5q6 0 11 -1.5t9 -5.5q8 -8 16 -18zM804 13
q-6 -4 -12 -6t-13 -2q-18 0 -31 13t-13 31q0 6 1.5 12t5 11.5t8.5 9.5l2 1l2 2l1 1q12 8 23.5 18t22.5 22q22 23 38 50.5t25 58.5t9 64q0 67 -34 122.5t-85 91.5q-19 13 -19 36q0 9 3 16.5t10 14.5q13 13 31 13q15 0 27 -10q33 -23 61.5 -54t49 -67.5t32.5 -77.5t12 -85
q0 -45 -12 -86t-33 -78t-49.5 -68t-62.5 -54z" />
    <glyph glyph-name="uniE61B" unicode="&#xe61b;" 
d="M817 546q23 -54 26.5 -102t-5.5 -88q-4 -20 -10.5 -38t-15 -34t-17.5 -30t-18 -26t-17.5 -22t-16.5 -18q-16 -15 -22 -21q-3 -2 -6 -4.5t-5.5 -4t-4.5 -3.5q-8 -4 -14 -6q-3 -2 -5 -3l-6 -4q-2 -1 -5 -4t-5 -7q-12 -17 -18 -33t-11 -31q-4 -12 -9.5 -20t-11.5 -14
q-7 -8 -14 -12h-195q-4 2 -7.5 5t-6.5 7q-6 6 -12 15.5t-11 24.5q-9 26 -21.5 41.5t-33.5 30.5q-14 11 -32 29q-19 18 -36 41q-18 24 -34 54t-26 65q-4 18 -7 37t-4 39q-2 40 8 85q15 71 52 119t83.5 77.5t95.5 42.5t89 13q42 0 87 -11.5t87.5 -36t77.5 -62.5t57 -91z
M624 -34v-10q0 -4 0.5 -9.5t0.5 -10.5q-1 -17 -9.5 -37t-32.5 -29q-4 -2 -10.5 -4.5t-14.5 -5.5q-15 -7 -46 -7q-27 0 -44.5 6.5t-26.5 8.5q-13 2 -20.5 10.5t-11.5 19.5q-1 3 -2 6.5t-1.5 7.5t-1.5 7q-1 12 -1 20v28z" />
    <glyph glyph-name="uniE61C" unicode="&#xe61c;" 
d="M958 203q6 -31 -5.5 -62.5t-45 -62.5t-84.5 -55t-131.5 -38.5t-179.5 -14.5q-66 0 -125 7.5t-105.5 20.5t-85 30.5t-64.5 38t-43 43t-22.5 46t-0.5 45.5q7 26 27.5 41.5t42 26t28.5 22.5q4 10 11 21t11.5 18.5t9.5 18.5t9 23q6 17 17 73t17 71q16 45 42 78q14 17 29 31
t32 26q17 11 34.5 19.5t37.5 15.5q-6 -2 -6 4q2 12 19 30q33 31 81 31t80 -31q10 -9 13.5 -17t2.5 -11l-1 -4q40 -12 75.5 -35.5t61.5 -57.5t42 -79q5 -12 10.5 -40t12 -57.5t10.5 -44.5q6 -16 12 -28.5t15 -28t15 -26.5q4 -9 15.5 -16.5t24.5 -13.5t26 -13.5t22.5 -19
t12.5 -25.5zM667 -89q2 0 0 -6.5t-11 -15.5t-24.5 -18t-47 -15.5t-71.5 -6.5q-39 0 -69 6.5t-46 15.5t-26 18t-13 15.5t-2 6.5q78 -15 151 -15q13 0 26.5 0.5t25.5 1.5l24 2q12 1 22.5 2t20 2.5t17 2.5t12.5 2t8 2h3z" />
    <glyph glyph-name="uniE61D" unicode="&#xe61d;" 
d="M563 240q-1 16 20 34t47 39.5t48 49t24 63.5q2 39 -8 73t-33 58.5t-59.5 39t-85.5 14.5q-60 0 -100.5 -21.5t-65.5 -52.5q-13 -15 -21.5 -30.5t-13.5 -31.5q-10 -33 -9 -55q1 -13 5 -22.5t11 -15.5q16 -12 34 -12q9 0 17 2.5t16 7.5q15 10 15 30q0 12 7.5 29.5t20.5 33.5
q6 8 14 14.5t17 12.5q19 11 42 11q44 0 71 -22.5t25 -56.5q0 -8 -2.5 -16t-7.5 -15q-10 -15 -25.5 -28.5t-32.5 -26.5q-9 -7 -17 -14l-16 -14l-6 -6l-6 -6l-4 -6q-3 -3 -5.5 -6.5t-4.5 -6.5q-5 -9 -8 -18t-3 -19l1 -38q0 -15 14 -28.5t36 -14.5q23 1 37 15q7 7 10 15t2 17
v24zM512.5 -6q25.5 0 43 17.5t17.5 42.5q0 26 -17.5 43.5t-43 17.5t-43 -17.5t-17.5 -43.5q0 -25 17.5 -42.5t43 -17.5zM511.5 746q92.5 0 174 -35t142.5 -95.5t95.5 -142t34.5 -174t-34.5 -173.5t-95.5 -142t-142.5 -95.5t-174 -34.5t-173.5 35t-142 95.5t-95.5 141.5
t-34.5 173.5t34.5 174t95.5 141.5t142 95.5t173.5 35.5z" />
    <glyph glyph-name="uniE61E" unicode="&#xe61e;" 
d="M528 768q-74 0 -142.5 -22.5t-124 -64t-97 -97t-64 -124t-22.5 -141.5q0 -92 35.5 -175t95.5 -143.5t143.5 -96t175 -35.5t175 35.5t143.5 96t95.5 143.5t35.5 174.5t-35.5 175t-95.5 143.5t-143.5 95.5t-174.5 35.5zM703 207q17 -17 17 -41t-17 -40.5t-40.5 -16.5
t-40.5 16l-94 95l-94 -95q-17 -16 -41 -16t-40.5 16.5t-16.5 40.5t17 41l94 94l-94 94q-17 17 -17 40.5t17 40.5q8 8 18.5 12.5t21.5 4.5t21.5 -4.5t19.5 -12.5l94 -94l94 94q17 17 40.5 17t40.5 -17q11 -11 15 -26t0 -29.5t-15 -25.5l-94 -94z" />
    <glyph glyph-name="uniE61F" unicode="&#xe61f;" 
d="M527.5 763q-90.5 0 -173.5 -35t-142.5 -95t-95 -142.5t-35.5 -173.5t35.5 -174t95 -142.5t142.5 -95t173.5 -35.5t173.5 35.5t143 95t95 142.5t35 174t-35 173.5t-95 142.5t-143 95t-173.5 35zM528 21q-8 0 -15.5 2t-13.5 6t-11.5 9t-9 11.5t-5.5 13.5t-2 15
q0 24 16.5 40.5t40 16.5t40 -16.5t16.5 -40t-16.5 -40.5t-39.5 -17zM584 263q0 -24 -16.5 -40.5t-40 -16.5t-40 16.5t-16.5 40.5v243q0 23 16.5 40t40 17t40 -17t16.5 -40v-243z" />
    <glyph glyph-name="uniE620" unicode="&#xe620;" 
d="M529.5 764q-91.5 0 -175 -36t-143.5 -96t-95.5 -143.5t-35.5 -175t35.5 -174.5t95.5 -143t143.5 -96t175 -36t175 36t143.5 96t95.5 143t35.5 174.5t-35.5 175t-95.5 143.5t-143.5 96t-175 36zM747 335l-221 -222q-17 -17 -41 -16q-6 -1 -11.5 0.5t-10.5 3.5t-10 5t-9 7
l-117 117q-17 17 -17 40.5t17 40.5t41 17t40 -17l77 -76l181 181q17 17 40.5 17t40.5 -17t17 -41t-17 -40z" />
    <glyph glyph-name="uniE621" unicode="&#xe621;" 
d="M825 63h-437q-23 0 -41.5 14t-25.5 37l-132 460h-164v140h217q11 0 22 -4t20 -10.5t15.5 -16t9.5 -20.5l27 -95h592q17 0 31.5 -7.5t24.5 -20.5q21 -28 12 -61l-104 -365q-6 -23 -25 -37t-42 -14zM441 203h331l64 225h-460zM392 -83q0 -30 20.5 -51t50.5 -21q15 0 28 6
t22.5 15.5t15.5 22.5t6 28v0q0 29 -21 50t-51 21t-50.5 -21t-20.5 -50zM678 -83q0 -30 21 -51t51 -21q14 0 27.5 6t23 15.5t15 22.5t5.5 28q0 29 -20.5 50t-50.5 21q-15 0 -28 -5.5t-22.5 -15t-15.5 -23t-6 -27.5z" />
    <glyph glyph-name="uniE622" unicode="&#xe622;" 
d="M963 346l-396 396q-15 18 -39 18q-12 0 -21.5 -4.5t-14.5 -9.5l-4 -4l-395 -396q-2 -2 -3.5 -4t-2.5 -4.5t-1.5 -5.5t-0.5 -5.5t0.5 -5t1.5 -5t2.5 -5t3.5 -4.5q8 -8 19.5 -8t19.5 8l27 26v-404q0 -10 5 -20t12.5 -17.5t17.5 -12.5t20 -5h628q8 0 16 3t15 8.5t12.5 12
t8.5 15t3 16.5v404l26 -26q8 -8 20 -8t20 8q4 4 6 9t2 10.5t-2 10.5t-6 9zM602 -71h-148v259h148v-259zM842 -15q0 -21 -18 -38.5t-37 -17.5h-130v314h-258v-314h-129q-22 0 -39 17.5t-17 38.5v404l314 313l314 -314v-403z" />
    <glyph glyph-name="uniE623" unicode="&#xe623;" 
d="M122 611zM70 611q0 14 7 26t19 19t26 7q22 0 37 -15.5t15 -36.5q0 -11 -4 -20.5t-11 -16.5t-16.5 -11t-20.5 -4q-14 0 -26 7t-19 19t-7 26zM122 352q-21 0 -36.5 -15t-15.5 -36.5t15.5 -36.5t37 -15t36.5 15t15 36q0 6 -1.5 12t-4 11t-6 9.5t-8 8t-9.5 6t-11 4t-12 1.5z
M122 41q-14 0 -26 -6.5t-19 -18.5t-7 -26t7 -26t19 -19t26 -7q11 0 20.5 4t16.5 11t11 16.5t4 20.5q0 21 -15 36t-37 15zM252 16h698v-52h-698v52zM252 326h698v-52h-698v52zM252 637h698v-52h-698v52z" />
    <glyph glyph-name="uniE624" unicode="&#xe624;" 
d="M901 661v-206h51v232q0 25 -13 38t-26 13l-12 1h-233v-52h207h3q1 0 5.5 -1.5t8 -4t6.5 -8t3 -12.5zM127 661q0 4 1 7.5t2.5 6t3 4.5t4 3t4.5 2t4 1.5t3.5 1t2.5 0.5h1h206v52h-232l-21 -3q-30 -12 -31 -49v-232h52v206zM901 -61q0 -7 -3 -12.5t-6.5 -7.5t-7.5 -3.5
t-7 -2.5h-2h-207v-51h233q1 -1 2.5 -1t7 1t10.5 2.5t11 5t10 9t7 14.5t3 20v232h-51v-206zM127 -61v206h-52v-232q0 -16 5.5 -27t13 -15.5t15 -7t12.5 -2.5l6 1h232v51h-206q-1 0 -3 0.5t-6.5 2t-8 3.5t-6 7.5t-2.5 12.5zM75 326h877v-52h-877v52z" />
    <glyph glyph-name="uniE625" unicode="&#xe625;" 
d="M681 161q45 50 67 113.5t20 127.5t-28 126t-74 111q-50 50 -115.5 76t-131.5 26t-131.5 -26t-115.5 -76q-67 -67 -91 -157t0 -180t91 -157q64 -65 150 -89.5t173 -5t155 79.5l265 -266l31 31zM649 190l-28 -29q-90 -79 -211.5 -75.5t-207.5 89.5q-90 90 -90 217t90 216.5
t217 89.5t216 -90q86 -85 90 -206.5t-76 -211.5z" />
    <glyph glyph-name="uniE626" unicode="&#xe626;" 
d="M831 240q9 0 17 3.5t14 9.5t9.5 14t3.5 17q0 18 -13 31t-31 13h-277v53q1 2 1.5 3.5t1.5 3.5t1 4l311 269q13 12 13 30.5t-13 31.5q-9 8 -20 11t-22.5 0t-19.5 -11l-297 -257l-297 257q-9 8 -20 11t-22.5 0t-19.5 -11.5t-11 -19.5t0 -22.5t11 -19.5l310 -269q1 -2 1.5 -4
t1.5 -3.5t2 -3.5v-53h-277q-6 0 -12 -1.5t-10.5 -4.5t-8.5 -7t-7 -9t-4.5 -10.5t-1.5 -11.5q0 -12 5.5 -22t16 -16t22.5 -6h277v-87h-277q-12 0 -22.5 -6t-16 -16t-5.5 -22t5.5 -22t16 -16t22.5 -6h277v-161q0 -18 13 -30.5t31 -12.5t31 12.5t13 30.5v161h277q18 0 31 13
t13 31q0 12 -6 22t-16 16t-22 6h-277v87h277z" />
    <glyph glyph-name="uniE627" unicode="&#xe627;" 
d="M310 345zM259 345q0 14 7 25.5t18.5 18t25.5 6.5q20 0 35 -14.5t15 -35.5t-15 -36t-35.5 -15t-35.5 15t-15 36zM512 395q-14 0 -25.5 -6.5t-18.5 -18t-7 -25.5t7 -25.5t18.5 -18.5t25 -7t25.5 7t18.5 18.5t6.5 25.5q0 33 -30 46q-10 4 -20 4zM891 673h-758
q-21 0 -36 -14.5t-15 -35.5v-556q0 -14 7 -25.5t18.5 -18.5t25.5 -7h263l102 -152h27l102 152h264q10 0 19.5 4t16 11t10.5 16.5t4 19.5v556q0 21 -14.5 35.5t-35.5 14.5zM891 92q0 -7 -3.5 -12.5t-9.5 -9t-12 -3.5h-205l1 1h-59l-2 -1l-31 -51l-59 -96l-58 96l-31 51l-60 1
v-1h-204q-5 0 -10 2t-8 5.5t-5 8t-2 9.5v506q0 10 7 17.5t18 7.5h708q10 0 17.5 -7.5t7.5 -17.5v-506zM714 395q-21 0 -36 -14.5t-15 -35.5q0 -14 7 -25.5t18.5 -18.5t25.5 -7q10 0 19.5 4t16 11t10.5 16.5t4 19.5t-4 19.5t-10.5 16t-16 10.5t-19.5 4z" />
    <glyph glyph-name="uniE628" unicode="&#xe628;" 
d="M531 321v274h-44v-274h-272v-42h272v-273h44v273h274v42h-274zM510 743q-90 0 -171.5 -35t-140.5 -94t-94 -140.5t-35 -171.5t35 -171.5t94 -140.5t140.5 -94t171.5 -35t171.5 35t140.5 94t94 140.5t35 171.5t-35 171.5t-94 140.5t-140.5 94t-171.5 35zM510 -100
q-108 0 -200 53t-145.5 145t-53.5 201q0 81 31.5 155t85 127.5t127.5 85t155 31.5q109 0 201 -53.5t145.5 -145.5t53.5 -200q0 -54 -14.5 -106t-40 -96t-62.5 -80.5t-81 -62.5t-95.5 -40t-106.5 -14z" />
    <glyph glyph-name="uniE629" unicode="&#xe629;" 
d="M448 155l-191 191l-35 -35l226 -226l35 35l296 296l-35 34zM513 743q-52 0 -101.5 -11.5t-93 -33.5t-81.5 -52t-68.5 -68.5t-52 -81.5t-33 -92.5t-11.5 -101.5q0 -90 35 -171.5t94 -140.5t140.5 -94t171 -35t171.5 35t141 94t94 140.5t35 171.5q0 45 -9 89t-26 83
t-41 74.5t-53.5 65.5t-65 54t-75 40.5t-83 25.5t-88.5 9zM514 -99q-109 0 -201 53.5t-145.5 146t-53.5 200.5q0 81 31.5 155.5t85 128t127.5 85t156 31.5q108 0 200 -53.5t145.5 -145.5t53.5 -201q0 -33 -5 -65t-15 -61.5t-24.5 -57t-32.5 -52t-40 -46.5t-46.5 -40
t-52.5 -32.5t-57.5 -24.5t-61.5 -15.5t-64 -5.5z" />
    <glyph glyph-name="uniE62A" unicode="&#xe62a;" 
d="M791 127h34q50 0 50 43q-1 20 -13 30t-35 11h-57v-135h21v51zM791 195h32q29 -1 30 -25q0 -26 -30 -27h-32v52zM715 211h20v-135h-20v135zM169 192h80v-80h-80v80zM904 626h-783q-19 0 -32.5 -13.5t-13.5 -32.5v-552q0 -13 6.5 -23.5t17 -16.5t22.5 -6h783q12 0 23 6
t17 16.5t6 23.5v552q0 19 -13.5 32.5t-32.5 13.5zM900 29h-778v362h778v-362zM900 431h-778v41h778v-41zM900 512h-778v63h778v-63zM640 76l54 135h-23q-41 -114 -42 -117h-1q-1 2 -43 117h-22l54 -135h23z" />
    <glyph glyph-name="uniE62B" unicode="&#xe62b;" 
d="M231 384h65q2 0 4.5 1t4.5 2.5t3 4t1 5.5v65q0 5 -4 9t-9 4h-65q-4 0 -7 -2t-4.5 -5t-1.5 -6v-65q0 -3 1 -5.5t2.5 -4t4 -2.5t5.5 -1zM409 189h307q17 0 31 1t22.5 2.5t8.5 3.5v37q0 8 -62 8h-307q-61 0 -61 -8v-37q0 -7 61 -7zM409 332h307q26 0 44 2t18 5v37q0 8 -62 8
h-307q-61 0 -61 -8v-37q0 -3 18 -5t43 -2zM902 616h-780q-12 0 -22.5 -6t-16.5 -16.5t-6 -22.5v-551q0 -19 13 -32t32 -13h780q19 0 32 13t13 32v551q0 19 -13 32t-32 13zM898 22h-775v544h775v-544zM231 228h65q5 0 9 3.5t4 9.5v65q0 5 -4 9t-9 4h-65q-6 0 -9.5 -4t-3.5 -9
v-65q0 -6 3.5 -9.5t9.5 -3.5zM231 85h65q11 1 13 13v65q0 3 -2 6t-5 5t-6 2h-65q-6 0 -9.5 -4t-3.5 -9v-65q0 -6 3.5 -9.5t9.5 -3.5z" />
    <glyph glyph-name="uniE62C" unicode="&#xe62c;" 
d="M920 592h-6h-807h-7h-21h-8v-580h879v580h-30zM879 556l-339 -350q-5 -5 -11 -8t-12 -3.5t-12.5 0t-12.5 3.5t-10 8l-340 350h737zM106 541l229 -235l-229 -235v470zM134 49l226 232l97 -101q7 -7 15.5 -12t18.5 -8t20 -3q15 0 29 6t25 17l97 101l225 -232h-753zM915 71
l-228 235l228 235v-470z" />
    <glyph glyph-name="uniE62D" unicode="&#xe62d;" 
d="M898 741h-777q-10 0 -19.5 -4t-16.5 -10.5t-11 -15.5t-4 -19v-783q0 -4 0.5 -8.5t2 -8.5t4 -7.5t5.5 -6.5l6 -6q3 -3 7 -5t8.5 -3.5t9 -2t8.5 -0.5h777q22 0 37 14t15 34v783q0 8 -2.5 15.5t-7.5 13.5t-11.5 10.5t-14 7t-16.5 2.5zM898 -67q0 -10 -7.5 -17t-18.5 -7h-725
q-7 0 -13 3.5t-9.5 9t-3.5 11.5v183l160 153q6 6 12 9.5t11 4t9.5 -0.5t8 -3.5t6 -4.5t3.5 -3l1 -2l126 -75l229 172q8 8 16 11t14 1.5t11.5 -4t7.5 -5.5l3 -3l159 -147v-286zM898 281l-139 131q-15 15 -30 21t-25 3t-18.5 -7.5t-12.5 -9.5l-4 -5l-211 -157l-110 65
q-8 10 -17.5 15.5t-17.5 5.5t-15.5 -2t-13.5 -6.5t-10.5 -8t-7.5 -6.5l-2 -3l-143 -135v486q0 10 8 17t18 7h725q11 0 18.5 -7t7.5 -17v-321v-66zM295 552q-14 0 -26 -6.5t-19 -18t-7 -24.5q0 -20 15 -34t36.5 -14t37 14t15.5 34q0 31 -30 44q-11 4 -22 5zM295 508z" />
    <glyph glyph-name="uniE62E" unicode="&#xe62e;" 
d="M742 329q0 -48 -18.5 -91.5t-50 -75t-75 -50.5t-91.5 -19q-97 0 -166 69t-69 167h-52q0 -112 75.5 -194.5t185.5 -92.5v-184h52v184q54 5 102.5 29.5t83.5 62.5t55 88.5t20 106.5h-52zM507 146q76 0 129.5 53.5t53.5 129.5v235q0 18 -4 36.5t-10.5 34.5t-16.5 31
t-22.5 27t-27 22t-31 17t-34.5 10.5t-37 3.5q-76 0 -129.5 -53.5t-53.5 -128.5v-235q0 -76 53.5 -129.5t129.5 -53.5z" />
    <glyph glyph-name="uniE62F" unicode="&#xe62f;" 
d="M446 740h-327q-12 0 -22 -6t-15.5 -16t-5.5 -22v-327q0 -18 12.5 -30.5t30.5 -12.5h327q18 0 31 12.5t13 30.5v327q0 12 -6 22t-16 16t-22 6zM446 391q0 -9 -6.5 -15.5t-15.5 -6.5h-283q-9 0 -15.5 6.5t-6.5 15.5v283q0 10 6.5 16t15.5 6h283q9 0 15.5 -6t6.5 -16v-283z
M904 740h-327q-9 0 -17 -3.5t-14 -9.5t-9.5 -14t-3.5 -17v-327q0 -18 13 -30.5t31 -12.5h327q18 0 30.5 12.5t12.5 30.5v327q0 18 -12.5 31t-30.5 13zM904 391q0 -9 -6.5 -15.5t-15.5 -6.5h-283q-6 0 -11 3t-8 8t-3 11v283q0 5 1.5 9t4.5 7t7 4.5t9 1.5h283q6 0 11 -3t8 -8
t3 -11v-283zM446 282h-327q-12 0 -22 -5.5t-15.5 -15.5t-5.5 -22v-327q0 -9 3.5 -17t9 -14t13.5 -9.5t17 -3.5h327q18 0 31 13t13 31v327q0 18 -13 30.5t-31 12.5zM446 -66q0 -9 -6.5 -15.5t-15.5 -6.5h-283q-9 0 -15.5 6.5t-6.5 15.5v283q0 9 6.5 15.5t15.5 6.5h283
q9 0 15.5 -6.5t6.5 -15.5v-283zM904 282h-327q-18 0 -31 -12.5t-13 -30.5v-327q0 -18 13 -31t31 -13h327q18 0 30.5 13t12.5 31v327q0 18 -12.5 30.5t-30.5 12.5zM904 -66q0 -9 -6.5 -15.5t-15.5 -6.5h-283h-5l-4 2q-2 0 -4 2l-2 2l-4 4q-1 1 -2 3v4q-1 2 -1 5v283
q0 9 6.5 15.5t15.5 6.5h283q9 0 15.5 -6.5t6.5 -15.5v-283z" />
    <glyph glyph-name="uniE630" unicode="&#xe630;" 
d="M880 520h-124l-106 133v1h-1q-20 22 -49 22h-176q-30 0 -51 -25l-105 -131h-127q-29 0 -49.5 -23t-20.5 -56v-439q0 -33 20.5 -55.5t49.5 -22.5h739q29 0 49.5 22.5t20.5 55.5v439q0 33 -20.5 56t-49.5 23zM511 54q-86 0 -146.5 60.5t-60.5 146.5q0 56 27.5 104t75 75.5
t104.5 27.5q85 0 146 -60.5t61 -146.5q0 -56 -28 -103.5t-75.5 -75.5t-103.5 -28z" />
    <glyph glyph-name="uniE631" unicode="&#xe631;" 
d="M515 585q17 0 32 6t25.5 17t17 26t6.5 31q0 34 -23.5 57.5t-57 23.5t-57 -23.5t-23.5 -57t23.5 -57t56.5 -23.5zM515 383q-33 0 -56.5 -23.5t-23.5 -57t23.5 -57.5t56.5 -24q22 0 40.5 11t29.5 29.5t11 40.5q0 9 -2 18.5t-6 17.5t-9.5 15t-12.5 12.5t-15 9.5t-17 6t-19 2
zM515 19q-16 0 -31 -6t-26 -17t-17 -26t-6 -31q0 -34 23.5 -57.5t56.5 -23.5q17 0 32 6.5t25.5 17t17 25.5t6.5 32q0 46 -40 69q-19 11 -41 11z" />
    <glyph glyph-name="uniE632" unicode="&#xe632;" 
d="M726 697q-7 7 -16.5 7t-16 -6.5t-6.5 -16.5q0 -2 0.5 -4.5t1.5 -4.5t2.5 -3.5t2.5 -3.5l155 -155h-171q-69 -9 -120 -31t-85 -55t-56.5 -82t-34 -105.5t-17.5 -133.5q0 -9 6.5 -15.5t16 -6.5t16 6.5t6.5 15.5q3 39 7 69.5t10.5 61t14.5 55t19.5 47.5t26 40t33.5 32.5
t42 26t52 18.5t63 11h171l-155 -155q-6 -7 -6 -15q0 -5 2 -9t5 -7t7 -5t8 -2q9 1 16 6l207 208v5zM875 232q-9 0 -15 -6.5t-6 -14.5v0v-222q0 -17 -12.5 -29.5t-30.5 -12.5h-407h-232q-18 0 -30.5 12.5t-12.5 29.5v414v137q0 18 12.5 30.5t30.5 12.5h299q6 0 11 3t7.5 8
t2.5 10.5t-2.5 10.5t-7.5 8t-11 3h-304q-22 0 -40.5 -11t-29.5 -29.5t-11 -40.5v-142v-418q0 -22 11 -40.5t29.5 -29.5t40.5 -11h648q34 0 57.5 23.5t23.5 57.5v226q0 8 -6 14.5t-15 6.5z" />
    <glyph glyph-name="uniE633" unicode="&#xe633;" 
d="M902 287q25 -16 36 -5q5 5 7 12t0 14t-7 12l-388 383q-15 18 -39 18q-11 0 -20.5 -4.5t-13.5 -9.5l-4 -4l-388 -383q-8 -8 -8 -19t8 -19q9 -7 18 -4t18 12l26 26l56 53v-53v-273v-88q0 -22 11 -41t30 -29.5t41 -10.5h144v42v12v191q0 17 12.5 29.5t30.5 12.5h79
q5 0 11 -1.5t10.5 -4t8.5 -6.5t7 -8.5t4.5 -10.5t1.5 -11v-191v-12v-42h144q34 0 58 23.5t24 57.5v361v51z" />
    <glyph glyph-name="uniE634" unicode="&#xe634;" 
d="M936 322l-387 382q-15 17 -38 17q-6 0 -11 -1t-8.5 -2.5t-7 -3.5t-5.5 -4l-4 -2q-2 -2 -2 -3l-1 -1l-387 -382q-8 -8 -8 -19t8 -19q5 -6 12 -5.5t13 4t12 9.5l26 26l364 352l387 -381q10 -7 19 -9t18 4q8 8 8 19t-8 19zM797 340q-9 0 -15.5 -6.5t-6.5 -15.5v0v-355
q0 -18 -12.5 -30.5t-30.5 -12.5h-96v206q0 22 -11 40.5t-30 29.5t-41 11h-87q-16 0 -31.5 -6.5t-26.5 -17.5t-17.5 -26t-6.5 -31v-206h-96q-7 0 -13.5 2t-12 6t-9.5 9.5t-6 12t-2 13.5v355q0 6 -3 11t-8 8t-11 3q-2 0 -4.5 -0.5t-4.5 -2t-4 -2.5t-3.5 -3t-2.5 -4t-1.5 -4.5
t-0.5 -5.5v-360q0 -33 24 -57t58 -24h143v244q0 9 3.5 17t9.5 13.5t14 9t17 3.5h78q17 0 30 -12.5t13 -30.5v-244h143q23 0 41.5 11t29.5 29.5t11 40.5v360q0 5 -1.5 9t-4.5 6.5t-7 4.5t-8 2z" />
    <glyph glyph-name="uniE635" unicode="&#xe635;" 
d="M891 402q-30 102 -113 183t-156 95l-16 4l-16 2q-8 2 -17 3l-18 2q-9 1 -19 1t-20 1q-27 0 -49 0.5t-39 2t-28.5 2.5t-23.5 3.5t-17 4t-15.5 4.5t-14.5 4q-13 4 -20 5.5t-18 2t-17 -2.5t-12 -10.5t-9 -20.5q-2 -6 -3.5 -13.5t-3 -14t-3.5 -14.5t-4 -15.5t-4.5 -16.5
t-5.5 -17t-7 -17t-8 -17.5t-10 -18t-12 -18.5q-25 -36 -44 -77q-50 -135 -9 -257q20 -57 54.5 -106.5t83 -89t115 -60t140.5 -15.5q37 0 55.5 1t40 -3.5t29.5 -6.5t23 -7.5t20 -6.5q14 -4 25 -5t21 2t16.5 13t9.5 27q7 38 30.5 91t61.5 105q33 62 39 147q5 66 -12 124z
M633 547q4 0 8.5 -1t8.5 -2.5t7.5 -3.5t7 -4.5t6 -6t4.5 -7t3.5 -7.5t2.5 -8.5t1 -9.5q0 -13 -6.5 -24.5t-18 -18t-24.5 -6.5q-7 0 -13 1.5t-11.5 5t-10 8t-7.5 10t-5 12t-2 12.5q0 14 6.5 25.5t18 18t24.5 6.5zM469.5 449q20.5 0 34.5 -14t14 -34t-14 -34.5t-34.5 -14.5
t-34.5 14.5t-14 34.5t14 34t34.5 14zM306 263q-10 0 -19 3.5t-15.5 10t-10.5 15.5t-4 19q0 20 14.5 34t34.5 14t34.5 -14t14.5 -34q0 -10 -4 -19t-10.5 -15.5t-15.5 -10t-19 -3.5zM653 160q-58 -47 -141 -56.5t-140 27.5q-2 2 -4.5 5.5t-6 12t-2.5 14.5q1 8 7.5 12.5t20 5.5
t34 -5.5t37.5 -10.5t36 -4.5t36 2.5t36 11.5t38 22.5q3 2 8.5 5.5t19.5 16.5t26 28.5t25 42t18 55.5q1 1 1.5 2.5t2 5.5t3.5 6.5t6 5t8.5 2.5t11 -3.5t13.5 -11.5q24 -24 -13.5 -90t-80.5 -102z" />
    <glyph glyph-name="uniE636" unicode="&#xe636;" 
d="M679 413v273q-5 2 -15 6.5t-41.5 14t-63.5 14t-78.5 0.5t-90.5 -19zM704 253v421q7 -3 18 -8.5t40.5 -27.5t54.5 -47.5t51 -69t38 -92.5zM620 130l291 274q1 -2 2.5 -5.5t5.5 -16t6 -26.5t2.5 -38t-3 -50.5t-13.5 -62.5t-26 -75h-265zM471 95h393q-1 -2 -3 -7t-10.5 -19
t-18.5 -28t-28.5 -33t-39.5 -35t-52 -32t-65 -27zM343 182v-256q2 -1 6 -3.5t18 -8.5t29.5 -10.5t40.5 -8.5t51 -5t61 2.5t71 12.5zM115 169l199 179v-407q-1 1 -4 2t-12 6t-18 10.5t-22.5 16t-27 22.5t-29 29.5t-29.5 38t-29 47t-28 56.5zM110 198q-2 6 -4.5 16.5t-7 42.5
t-4.5 63.5t8.5 73.5t25.5 78h274zM146 501q1 3 3.5 7.5t11.5 19.5t19.5 29.5t29 34t39.5 36.5t50 34.5t61 30.5l187 -192h-401z" />
    <glyph glyph-name="uniE637" unicode="&#xe637;" 
d="M711 308q-14 2 -18.5 8t-0.5 11l3 4q1 3 3 6.5t5 14.5t4 22t-3.5 24.5t-15.5 23.5q-13 14 -34.5 18t-42.5 0.5t-40.5 -8.5t-31.5 -10l-12 -6q-8 -2 -14 -3t-9.5 -1t-5.5 2t-3 4.5t-0.5 7t1.5 8t2.5 11t2.5 11.5q0 15 -2.5 27t-10.5 25.5t-21 20.5t-38 6.5t-58 -11.5
t-67 -34t-59.5 -47t-46.5 -47.5t-32 -37.5t-11 -15q-31 -41 -46 -82.5t-15 -61.5v-21q5 -46 27.5 -82t53.5 -59t73 -38.5t80.5 -23t81.5 -10.5q53 -4 110 5t110 29.5t96 55t64 78.5q11 25 14.5 47t0 39t-12 31t-19 24t-22.5 17t-22 11t-18 6zM421 10q-103 -5 -175 40
t-72 114q0 68 71.5 117.5t175.5 54.5q33 1 65 -2.5t59.5 -11.5t50 -20.5t38.5 -28.5t25 -36.5t9 -42.5q0 -73 -78 -128q-73 -52 -169 -56zM393 275q-28 -3 -49.5 -13t-34 -22.5t-21 -28.5t-12 -29t-4.5 -26.5t-0.5 -18.5t0.5 -7v-2q0 -2 0.5 -7t2 -9.5t4 -11t6.5 -12t10 -11
t14 -9.5q23 -13 47.5 -18.5t47 -3.5t43 9.5t37.5 20t30 29.5q16 20 17.5 51.5t-10.5 60t-45.5 46.5t-82.5 12zM359 93q-13 -1 -23.5 3t-16.5 12t-6 19q0 17 12.5 31t30.5 16q22 2 35.5 -9t13.5 -27t-13.5 -29t-32.5 -16zM440 163q-5 -3 -9.5 -4t-8.5 0.5t-6 5.5
q-2 3 -2.5 6.5t0 7t2.5 7t6 5.5q3 3 7 4t7.5 1t6 -2t4.5 -5q3 -6 1 -13.5t-8 -12.5zM778 364q8 0 14.5 5.5t7.5 13.5v2q4 31 -1 54.5t-15.5 36.5t-24.5 22t-28.5 11.5t-26.5 3t-20 -0.5l-7 -1q-9 0 -16 -7t-7 -16q0 -6 3 -11.5t8.5 -8.5t11.5 -3q75 17 80 -49l-2 -30
q5 -19 23 -22zM762 629q-48 11 -113 -2h-1l-2 -1l-1 -1q-10 -2 -16.5 -11t-6.5 -20q0 -9 4 -17t11.5 -12t16.5 -4q18 2 30 7q5 0 16.5 1.5t31 -3.5t39 -12.5t40.5 -25t35 -41.5q25 -57 10 -109q-6 -17 -6 -32q0 -7 2.5 -12.5t7 -9.5t10.5 -6t12 -2q14 0 21.5 5t10.5 23
q17 53 13 96.5t-18.5 75.5t-40.5 55.5t-52 37t-54 20.5z" />
    <glyph glyph-name="uniE638" unicode="&#xe638;" 
d="M664 443q13 0 30 -1q-20 92 -108.5 153t-202.5 61q-127 0 -217.5 -75.5t-90.5 -184.5q0 -120 123 -205l-31 -92l108 53q6 -1 16 -3t16 -3t14.5 -2.5t15 -2.5t14.5 -2t16 -1.5t16 -0.5q7 0 14 0.5t15 0.5q-5 16 -7.5 32t-2.5 32q0 100 76.5 170.5t185.5 70.5zM499 526
q17 0 27.5 -10.5t10.5 -27.5q0 -8 -2.5 -15.5t-7.5 -12.5t-12.5 -7.5t-15.5 -2.5q-19 0 -33 11t-14 27q0 8 4 15.5t10.5 12.5t15 7.5t17.5 2.5zM283 450q-4 0 -8.5 0.5t-8.5 2t-8 3.5t-7 4.5t-5.5 5.5t-4.5 6.5t-3 7.5t-1 8q0 11 6.5 20t17 13.5t22.5 4.5q9 0 16 -2.5
t12 -7.5t7.5 -12t2.5 -16q0 -17 -10.5 -27.5t-27.5 -10.5zM945 206q0 90 -78 155.5t-183 65.5q-110 0 -186 -64.5t-76 -156.5t76 -156.5t186 -64.5q31 0 92 15l85 -46l-23 76q49 37 78 82t29 94zM599 244q-8 0 -15 4.5t-11.5 11.5t-4.5 14.5t4.5 14.5t11.5 11.5t15 4.5
q17 0 27.5 -9.5t10.5 -20.5q0 -4 -1 -8t-3.5 -7.5t-6 -6t-7.5 -5t-9.5 -3.5t-10.5 -1zM768 244q-7 0 -14 4.5t-11.5 11.5t-4.5 15q0 11 9.5 20.5t20.5 9.5q17 0 28 -9.5t11 -21.5t-11 -21t-28 -9z" />
    <glyph glyph-name="uniE639" unicode="&#xe639;" 
d="M510 707q-12 0 -23 -4t-19.5 -12t-14.5 -18l-97 -197l-223 -33q-18 -2 -31 -13t-19 -27q-12 -34 14 -60l164 -160l-38 -222q-3 -16 4 -32t22 -26q16 -10 36 -10q5 0 10 0.5t10 2.5l10 4l195 103l195 -103q14 -7 30 -7q19 0 35 10q32 22 26 58l-38 222l164 160
q26 26 14 60q-2 7 -5.5 12.5t-8 10t-10.5 8t-12 6t-13 3.5l-224 33l-97 197q-8 16 -23 25t-33 9z" />
    <glyph glyph-name="uniE63A" unicode="&#xe63a;" 
d="M510 669q3 0 6 -1t6 -2.5t5 -4t4 -4.5l97 -198q3 -6 7.5 -10t10 -7t11.5 -4l224 -33q14 -2 18 -14q2 -5 0.5 -10.5t-5.5 -9.5l-164 -161q-14 -14 -11 -33l38 -222q1 -4 0 -7.5t-3 -7t-6 -5.5l-4 -2q-2 -1 -4.5 -1.5t-4.5 -0.5q-6 0 -12 3l-195 102q-9 5 -18 5
q-10 0 -19 -5l-195 -102q-5 -3 -11 -3q-8 0 -14 4q-11 7 -9 20l38 222q1 5 0.5 9.5t-2 8.5t-4 8t-5.5 7l-164 161q-9 8 -5 20q2 6 7 9.5t11 4.5l224 33q20 3 29 21l98 198q2 5 8 8.5t13 3.5zM510 707q-12 0 -23 -4t-19.5 -12t-14.5 -18l-97 -197l-223 -33q-18 -2 -31 -13
t-19 -27q-12 -34 14 -60l164 -160l-38 -222q-3 -16 4 -32t22 -26q16 -10 36 -10q5 0 10 0.5t10 2.5l10 4l195 103l195 -103q14 -7 30 -7q19 0 35 10q32 22 26 58l-38 222l164 160q26 26 14 60q-2 7 -5.5 12.5t-8 10t-10.5 8t-12 6t-13 3.5l-224 33l-97 197q-8 16 -23 25
t-33 9z" />
    <glyph glyph-name="uniE63B" unicode="&#xe63b;" 
d="M730 -92l-394 392l394 392q5 5 7 11.5t1 12.5t-6 10q-6 7 -16.5 6.5t-18.5 -8.5l-406 -404q-2 -2 -4 -5.5t-3 -7.5t-1 -7q0 -5 2 -10.5t7 -9.5l405 -404q4 -4 9 -6t9.5 -2.5t9 1t7.5 5.5q7 6 6.5 16.5t-8.5 17.5z" />
    <glyph glyph-name="uniE63C" unicode="&#xe63c;" 
d="M289.5 -126.5q6.5 -6.5 16.5 -6t18 8.5l406 404q9 8 8 20q1 12 -8 20l-406 404q-8 8 -18 8.5t-16.5 -6t-6 -17t8.5 -17.5l394 -392l-394 -392q-8 -7 -8.5 -17.5t6 -17z" />
    <glyph glyph-name="uniE63D" unicode="&#xe63d;" 
d="M937 78.5q7 6.5 6 17t-8 17.5l-404 406q-8 9 -20 9t-21 -9l-403 -406q-8 -7 -8.5 -17.5t5.5 -17.5q5 -4 11 -5t12.5 1t11.5 7l392 394l391 -394q8 -8 18 -8.5t17 6z" />
    <glyph glyph-name="uniE63E" unicode="&#xe63e;" 
d="M902 519l-391 -394l-392 394q-5 5 -11.5 7t-12.5 1t-11 -5q-6 -7 -5.5 -17.5t8.5 -17.5l403 -406q3 -3 6.5 -5t7 -3t7.5 -1q12 0 20 9l404 406q7 7 8 17.5t-6 17.5q-3 3 -7.5 4.5t-9 1t-9.5 -2.5t-9 -6z" />
    <glyph glyph-name="uniE63F" unicode="&#xe63f;" 
d="M951 -7h-878l439 614z" />
    <glyph glyph-name="uniE640" unicode="&#xe640;" 
d="M512 -7l-439 614h878z" />
    <glyph glyph-name="uniE641" unicode="&#xe641;" 
d="M819 739v-878l-614 439z" />
    <glyph glyph-name="uniE642" unicode="&#xe642;" 
d="M205 -139v878l614 -439z" />
    <glyph glyph-name="uniE643" unicode="&#xe643;" 
d="M510 -128q-116 0 -215.5 57.5t-157 157t-57.5 216t57.5 216t157 157t216 57.5t215.5 -57.5t157 -157t58 -216.5q0 -165 -111 -288q-107 -119 -265 -139q-27 -3 -55 -3zM510 688q-104 0 -192.5 -52t-140 -140.5t-51.5 -193t51.5 -193.5t140 -140.5t192.5 -51.5
q79 0 150 30.5t122.5 82.5t82 123t30.5 149.5t-30.5 149.5t-82 122.5t-122.5 82.5t-150 31z" />
    <glyph glyph-name="uniE644" unicode="&#xe644;" 
d="M913 -56l-357 357l357 357q4 4 6 9.5t2 11t-2 11t-6 9.5q-9 8 -21 8t-20 -8l-357 -357l-357 357q-8 8 -20 8t-20 -8q-4 -4 -6 -8t-2.5 -8.5t0 -8.5t2.5 -8t6 -8l357 -357l-357 -357q-4 -4 -6.5 -9.5t-2.5 -10.5t2.5 -10.5t6.5 -9.5q8 -9 20 -9t20 9l357 357l357 -357
q8 -9 20 -9t21 9l4 6q2 3 3 6.5t1 7.5t-1 7.5t-3 7t-4 5.5z" />
    <glyph glyph-name="uniE645" unicode="&#xe645;" 
d="M754 276l-220 221q-5 8 -13 11q-5 2 -10 1h-1v1l-1 -1q-5 0 -10 -1q-9 -3 -14 -11l-220 -221q-3 -3 -5 -8t-1.5 -10.5t2.5 -10.5t6 -9q8 -9 19.5 -9t18.5 7l1 1l2 2l173 173l1 -413v-3q0 -10 8 -17.5t19.5 -7.5t20 7.5t8.5 17.5v416l174 -173l3 -3q5 -5 11.5 -6.5
t13.5 0.5t13 8q8 8 8.5 19.5t-7.5 18.5zM865 602q0 -5 -2 -9.5t-5 -8t-8 -5.5t-10 -2h-660q-11 0 -18 7.5t-7 17.5t7 17.5t18 7.5h660q11 0 18 -7.5t7 -17.5z" />
    <glyph glyph-name="uniE646" unicode="&#xe646;" 
d="M688 155l-147 147l147 146q6 7 6 16t-6 16q-5 4 -10.5 5.5t-11.5 0t-10 -5.5l-147 -146l-146 146q-4 3 -8 5t-8.5 2t-8.5 -2t-7 -5q-5 -4 -6.5 -10t0 -12t6.5 -10l146 -146l-146 -147q-7 -7 -7 -16t7 -16q4 -4 10 -5.5t11.5 0t10.5 5.5l146 147l147 -147q6 -7 15.5 -7
t16.5 7q4 4 5.5 10t0 12t-5.5 10zM938 302q0 43 -8.5 86t-25 81t-39.5 72.5t-52 63.5t-64 52.5t-73 39.5t-80.5 25t-86.5 9q-116 0 -215 -57.5t-156.5 -156.5t-57.5 -215.5t57.5 -215.5t156.5 -156.5t215 -57.5q143 0 259 88l2 4q1 2 1.5 4t0.5 4q0 6 -2.5 10t-6.5 6.5
t-10 2.5q-8 0 -13 -5h-1q-103 -76 -229 -76q-106 0 -195.5 52t-141.5 141.5t-52 195t52 195t141.5 141.5t195 52t195 -52t141.5 -141.5t52 -194.5q0 -99 -44 -182q-1 -4 -1 -6q0 -5 2.5 -9.5t7 -7t9.5 -2.5q13 0 18 13q48 93 48 197z" />
    <glyph glyph-name="uniE647" unicode="&#xe647;" 
d="M512.5 778q-111.5 0 -190.5 -79t-79 -191q0 -79 42.5 -144.5t112.5 -98.5q-84 -25 -150.5 -82t-104.5 -137.5t-38 -171.5q0 -9 6 -15t15 -6t15 6t6 15q0 99 49 183t133 133t183 49q112 0 191 79t79 190.5t-79 190.5t-190.5 79zM512 281q-94 0 -160.5 67t-66.5 160.5
t66.5 160t160.5 66.5q46 0 88.5 -18t72.5 -48t48 -72t18 -89q0 -61 -30.5 -113.5t-82.5 -83t-114 -30.5zM760 198q-4 3 -8 4t-8 0.5t-8 -3t-6 -5.5q-6 -7 -4.5 -16t8.5 -14q68 -52 105.5 -128t37.5 -162q0 -9 6.5 -15t15.5 -6q3 0 6.5 1t6 3t4.5 4.5t3 5.5t1 7q0 96 -42 181
t-118 143z" />
    <glyph glyph-name="uniE648" unicode="&#xe648;" 
d="M512 300h-64v256h-64v-256h-64v256h-64v-256v-64h64h64v-192h64v192h64h64v64v256h-64v-256zM704 556v-64h-64v-192h64v-256h64v512h-64z" />
    <glyph glyph-name="uniE649" unicode="&#xe649;" 
d="M615 -52v290q120 92 287 64q13 -111 -58.5 -212t-182.5 -142h-46zM409 -52h148v367q56 18 96.5 56.5t57 86t15 97t-28 95.5t-72.5 75l-41 -118l-71 107l-71 -105l-39 116q-59 -37 -83.5 -98.5t-14 -121.5t55.5 -113.5t115 -77.5v-154q-52 84 -148.5 127.5t-216.5 23.5
q-9 -75 11.5 -138t64.5 -106.5t99.5 -73t122.5 -45.5z" />
    <glyph glyph-name="uniE64A" unicode="&#xe64a;" 
d="M62 750h897v-112h-897v112zM62 526h670v-113h-670v113zM62 305h782v-112h-782v112zM62 77h558v-112h-558v112z" />
    <glyph glyph-name="uniE64B" unicode="&#xe64b;" 
d="M834 -51h-647v31v28v22q0 14 1 19.5t2.5 15t3.5 16t5 12.5q21 46 90 62q44 10 67.5 17t33 14.5t9 13.5t-6.5 17q-49 89 -57.5 166t24.5 132q7 13 17 24t21 20t24 16t27.5 11.5t30 7t32.5 2.5q19 0 37.5 -3.5t35 -10t30.5 -16.5t26 -22.5t21 -27.5q25 -41 25.5 -96.5
t-15 -103.5t-42.5 -99q-6 -11 -6 -17t9 -13.5t32.5 -14.5t67.5 -17q69 -16 90 -62q3 -6 5 -12t3 -11.5t2 -14.5t1.5 -14.5t0.5 -18.5v-20v-24v-29zM250 12h521q0 44 -8.5 58.5t-44.5 23.5q-28 6 -40.5 9t-35 10t-34 14t-23.5 18t-19 24q-7 17 -5.5 36.5t13.5 40.5
q15 29 26 58t19 61.5t5.5 63.5t-17.5 55q-29 49 -96 49q-68 0 -98 -50q-23 -39 -14 -101t48 -135q24 -43 8 -78q-5 -11 -13 -20t-21.5 -16.5t-23.5 -12.5t-30.5 -10.5t-30 -8t-33.5 -7.5q-36 -9 -44.5 -23.5t-8.5 -58.5z" />
    <glyph glyph-name="uniE64C" unicode="&#xe64c;" 
d="M868 508l-92 93l-287 -269l-391 390v-772h772l-289 289zM595 43h-402v432l209 -225l-57 -53l-31 -124l124 31l53 50zM839 660l-32 -30l93 -92l32 30z" />
    <glyph glyph-name="uniE64D" unicode="&#xe64d;" 
d="M175 635v-782h669v782h-669zM742 -45h-465v577h465v-577zM621 748h-232q-26 0 -48.5 -8.5t-38.5 -24.5t-27.5 -36.5t-17.5 -44.5h505q-14 50 -52 82t-89 32zM611 646h-211q-7 0 -12.5 3.5t-8.5 9t-3 12.5q0 10 7 17t17 7h211q7 0 12.5 -3t8.5 -9t3 -12q0 -11 -7 -18
t-17 -7zM619 523v49h-220v-49q-3 -1 -7 -3t-6.5 -4.5t-4.5 -6t-3.5 -7.5t-1.5 -8q0 -13 9.5 -22t21.5 -9h205q2 0 4 1h6l4 2t4 2.5t3.5 3.5t3 3.5t2.5 4t2 4.5t1.5 4.5t0.5 5.5q0 10 -6.5 18.5t-17.5 10.5z" />
    <glyph glyph-name="uniE64E" unicode="&#xe64e;" 
d="M932 -103q0 43 -42 114t-100.5 133t-103.5 81q30 26 52 59t34 72t12 81q0 117 -84 199.5t-203 82.5q-47 0 -90.5 -14.5t-79 -40.5t-62 -60.5t-41 -77.5t-14.5 -89q0 -62 26 -117t72 -95q-44 -19 -103 -81t-101 -133t-42 -114h870zM370 135l127 -125l146 143zM497 -6v-72
v72z" />
    <glyph glyph-name="uniE64F" unicode="&#xe64f;" 
d="M994 79q-12 7 -15.5 18t3 26.5t23.5 32.5q12 12 16.5 27t1 27.5t-12 23t-21.5 16.5q-17 8 -24.5 18t-2 20.5t26.5 18.5q30 12 29.5 56t-31.5 80q-17 20 -92 25.5t-142 1.5l-67 -5q1 1 1 5t1 40.5t1 99.5q0 102 -28 140t-84 36q-18 -1 -28.5 -5.5t-17 -12.5t-11 -26.5
t-7.5 -38t-10 -57t-16 -73.5q-9 -35 -25 -69t-35 -61.5t-40 -52.5t-40 -43.5t-34.5 -32t-25.5 -20.5l-9 -6v-387q10 -13 27 -24.5t31 -17.5t31 -12t21 -7q9 -4 65 -10.5t105.5 -11.5t51.5 -5q4 1 11 1.5t30 2.5t45 4.5t52 6t56.5 7.5t53.5 9.5t47 11.5t33.5 13t15.5 15
q5 14 4 24.5t-2 20t-1.5 16.5t5 13t18.5 11q27 10 34.5 35t0.5 46.5t-19 28.5zM0 294v-379q0 -29 20 -49t49 -20h137v517h-137q-19 0 -35 -9t-25 -25t-9 -35zM0 294z" />
    <glyph glyph-name="uniE650" unicode="&#xe650;" 
d="M593 685h-169q-8 0 -14.5 -3.5t-11.5 -9t-8 -13t-3 -16.5q0 -17 11 -29t26 -12h170q7 0 14 3.5t11.5 9t7.5 13t3 15.5q0 29 -24 39q-7 2 -13 3zM776 657h-48h-36q2 -7 2 -14q0 -26 -16.5 -47t-39.5 -21h-258q-23 0 -39.5 21t-16.5 47q0 7 1 14h-32h-53q-48 0 -66.5 -24
t-18.5 -71v-554q0 -46 21 -69.5t69 -23.5h526q51 0 75 22t24 71v554q0 12 -2 23t-6 20.5t-9.5 17.5t-13 14.5t-17 10.5t-21 6.5t-25.5 2.5zM690 110h-366q-6 0 -12.5 4.5t-10.5 11.5t-4 14q0 5 2 9.5t5.5 8t8 5.5t9.5 2h365q10 0 17.5 -7t8.5 -18q0 -4 -1 -8t-3.5 -8t-5 -7
t-6 -5t-7.5 -2zM691 257h-365q-10 0 -16 8.5t-6 19.5q0 10 7.5 18.5t17.5 8.5h364q5 0 9.5 -2.5t8 -6t6 -8.5t2.5 -10t-2.5 -10t-6.5 -9t-9 -6.5t-10 -2.5zM691 407h-365q-7 0 -12 4.5t-7.5 11t-2.5 12.5q0 11 7.5 19t17.5 8h364q10 0 17.5 -8t8.5 -19q0 -10 -9 -19t-19 -9z
" />
    <glyph glyph-name="uniE651" unicode="&#xe651;" 
d="M-53 829zM931 588q29 0 44 -8q8 -3 13.5 -7.5t8.5 -9.5q7 -11 6 -23q0 -5 -0.5 -9t-1 -7t-1.5 -7l-14 -36l-21 -61l-23 -65q-14 -42 -17 -52q-7 -18 -15.5 -32t-17.5 -22q-20 -15 -49 -15h-525l15 -88h503q49 0 49 -41q0 -20 -10 -34q-9 -15 -38 -15h-524q-6 0 -12 1
t-11 3t-10 5q-13 9 -22 23q-4 7 -8 14.5t-7 16.5q-6 21 -8 32l-5 29l-12 56l-14 76l-16 85l-43 222h-75q-16 0 -25 7q-10 7 -17 17q-3 7 -5.5 12.5t-3.5 11t-1.5 11t-0.5 9.5q0 20 13 34q7 5 16 8.5t20 3.5h102q20 0 32 -6q5 -3 10 -6.5t10 -7.5q6 -10 8 -19l6 -18
q1 -4 3 -16v-6l5 -28l5 -38h684zM764 28q8 0 17.5 -2t18.5 -5q18 -7 30 -20q13 -13 21 -29q6 -16 6 -35q0 -9 -1.5 -18.5t-4.5 -16.5q-8 -16 -21 -30q-12 -12 -30 -19q-17 -8 -36.5 -8t-36.5 8t-29 19q-13 14 -19 30q-8 16 -8 35q0 9 1.5 18t6.5 17q6 16 19 29q6 7 13.5 12
t15.5 8q6 2 12 3.5t12 2.5t13 1zM348 30q18 0 36 -7q17 -6 30 -20q6 -6 11 -13.5t9 -14.5q7 -18 7 -36t-7 -35q-7 -15 -20 -30q-13 -12 -30.5 -19t-35.5 -7q-20 0 -37 6q-16 8 -30 20q-13 15 -19 30q-7 17 -7 35t7 36q3 7 8 14.5t11 13.5q5 5 10 8l9 7q6 3 11 5q5 1 9 3
t8.5 2.5t9.5 1t10 0.5z" />
    <glyph glyph-name="uniE652" unicode="&#xe652;" 
d="M754 527h-479q-88 0 -149.5 -62t-61.5 -149q0 -85 59 -146l-44 -108l121 57q36 -13 75 -13h479q87 0 149 61.5t62 148.5q0 19 -3.5 38t-10 36t-15.5 32.5t-20.5 29.5t-25.5 25.5t-29.5 20.5t-32.5 15.5t-36 10t-38 3.5z" />
    <glyph glyph-name="uniE653" unicode="&#xe653;" 
d="M370 21q13 -14 32 -14t33 14l231 232q14 14 14 33t-14 33l-231 232q-14 13 -33 13t-32.5 -13.5t-13.5 -32.5t14 -32l199 -200l-199 -200q-14 -13 -14 -32.5t14 -32.5z" />
    <glyph glyph-name="uniE654" unicode="&#xe654;" 
d="M514 60l45 -45l271 271l-271 272l-45 -45l226 -227zM194 60l45 -45l271 271l-271 272l-45 -45l226 -227z" />
    <glyph glyph-name="uniE655" unicode="&#xe655;" 
d="M682 286q0 -34 -13.5 -65.5t-36.5 -54t-54 -36t-66 -13.5q-70 0 -120 49.5t-50 120t50 120t120 49.5q46 0 85 -22.5t62 -61.5t23 -86z" />
    <glyph glyph-name="uniE656" unicode="&#xe656;" 
d="M510 673q-117 0 -199.5 -81t-82.5 -195.5t82.5 -195.5t199.5 -81t200 81t83 196q0 117 -87 199q-82 77 -196 77zM184 291v255q-5 0 -10 -1q44 96 134.5 155t201.5 59t202 -59t135 -155l-11 1v-255q54 0 92.5 37t38.5 90q0 36 -18 65.5t-49 46.5q-12 33 -29.5 64
t-40.5 58.5t-50 50.5t-58 41t-65 31t-71 19.5t-76 6.5q-133 0 -240 -75.5t-149 -195.5q-31 -17 -49 -46.5t-18 -65.5q0 -34 17.5 -63.5t47.5 -46.5t65 -17zM792 144q-56 -51 -128.5 -79.5t-153 -28.5t-153 28t-128.5 80q-102 -52 -160.5 -140.5t-58.5 -205.5h1004
q0 118 -59 206.5t-163 139.5z" />
    <glyph glyph-name="uniE657" unicode="&#xe657;" 
d="M457 286q-148 147 -108 186q3 3 9 8q16 17 23.5 25.5t15.5 25t5 31.5t-14 38t-34 51q-13 17 -26 28.5t-25.5 16t-22.5 6.5t-21.5 -2.5t-19.5 -8t-19 -13t-17 -15.5t-17 -17.5t-16 -15.5q-15 -16 -18.5 -47t8 -75.5t35.5 -94.5t67 -109t98.5 -114.5t114.5 -98.5t109 -67
t94.5 -35.5t75.5 -8t47 19.5q4 4 14 13.5t15.5 15t14.5 15t13 16.5t9 17t5.5 18.5t-1 19.5t-7.5 21.5t-16 22.5t-26 24q-79 64 -125 41q-15 -7 -54 -46q-40 -39 -186 108v0z" />
    <glyph glyph-name="uniE658" unicode="&#xe658;" 
d="M961 71q0 -28 -14 -54l-284 318l280 245q18 -27 18 -59v-450zM511 277l391 342q-26 14 -53 14h-675q-27 0 -53 -14zM620 298l-90 -79q-3 -3 -6 -4.5t-6 -2t-7 -0.5q-10 0 -18 7l-90 79l-288 -322q28 -17 59 -17h675q6 0 12.5 0.5t12.5 2t12 4t11.5 5t10.5 5.5zM79 580
q-8 -13 -12.5 -28t-4.5 -31v-450q0 -28 14 -54l284 318zM79 580z" />
    <glyph glyph-name="uniE659" unicode="&#xe659;" 
d="M498 68l-262 261l119 120l143 -143l320 321q-40 38 -88 65t-104 41.5t-114 14.5q-91 0 -174 -35.5t-143 -95.5t-95.5 -143t-35.5 -174t35.5 -174t95.5 -143t143 -95.5t174 -35.5t174 35.5t143 95.5t95.5 143t35.5 174q0 98 -42 188zM498 68z" />
    <glyph glyph-name="uniE65A" unicode="&#xe65a;" 
d="M166 100q0 -92 57.5 -110.5t285.5 -18.5h2h2q228 0 285.5 18.5t57.5 110.5q0 30 -9 68t-26 78t-40.5 80t-54 75t-63.5 62.5t-72.5 43.5t-79.5 16q-68 0 -134 -46t-111 -112.5t-72.5 -138.5t-27.5 -126zM510 462q40 0 74 -19.5t53.5 -53.5t19.5 -74q0 -62 -43 -105
t-104 -43q-24 0 -46.5 7.5t-40.5 21t-31.5 32t-21 41t-7.5 46.5q0 15 3 29.5t8.5 27.5t13.5 25t18 22t22 18t25 13.5t27.5 8.5t29.5 3zM818 354q-25 39 -54.5 72.5t-67.5 63t-85.5 47t-98.5 17.5t-99.5 -18.5t-87 -49t-67.5 -63.5t-49 -69q-20 -31 -50.5 -30t-46.5 30
q-7 14 -9 40.5t13 68t52 77t126 61.5t218 26q94 0 168 -14t116.5 -36.5t71 -50.5t39 -55.5t13 -53t-1 -41.5t-7.5 -22q-14 -20 -35 -23.5t-37 4t-21 19.5z" />
    <glyph glyph-name="uniE65B" unicode="&#xe65b;" 
d="M-18 818zM599 244q51 20 89.5 59t60.5 90.5t22 108.5q0 116 -82.5 198t-198.5 82t-198 -82t-82 -198q0 -43 13 -84t36 -74.5t56 -60t71 -42.5q-89 -22 -160.5 -79t-113.5 -140t-42 -176q0 -20 4 -43h831q1 10 1.5 20.5t0.5 21.5q0 142 -87 252.5t-221 145.5v1z" />
    <glyph glyph-name="uniE65C" unicode="&#xe65c;" 
d="M849 -157h-681q-13 0 -26 5t-22 13.5t-14.5 20.5t-5.5 25v476q0 13 5.5 24.5t14.5 20.5t22 14t26 5h681q28 0 48 -19t20 -45v-476q0 -13 -5.5 -25t-14.5 -20.5t-21.5 -13.5t-26.5 -5zM509 288q-43 0 -72.5 -28t-29.5 -68q0 -13 3.5 -25t10 -22.5t16 -19t21.5 -15.5v-90
q0 -21 15 -35.5t36 -14.5q14 0 25.5 6.5t18.5 18t7 25.5v90q23 13 37 35t14 47.5t-13.5 47.5t-37.5 35t-51 13zM508.5 701q-41.5 0 -79 -15t-65 -41t-43.5 -61t-16 -74h-103q0 58 24.5 111t65.5 91.5t97.5 61t119.5 22.5q41 0 81 -10.5t73.5 -28.5t62 -44.5t48 -58
t30.5 -68.5t11 -76h-102q0 39 -16 74t-43.5 61t-65.5 41t-79.5 15z" />
    <glyph glyph-name="uniE65D" unicode="&#xe65d;" 
d="M820 15q0 -25 -10 -47t-27.5 -38.5t-41 -26t-51.5 -9.5h-357q-28 0 -51.5 9.5t-41 26t-27.5 38.5t-10 47v675q0 25 10 47.5t27.5 39t41 26t51.5 9.5h357q28 0 51.5 -9.5t41 -26t27.5 -39t10 -47.5v-675zM739 642h-456v-578h456v578zM511 36q-21 0 -36.5 -15t-15.5 -37
t15.5 -37.5t36.5 -15.5q22 0 37 15.5t15 37.5t-15 37t-37 15zM592 727q0 8 -5 12.5t-12 4.5h-128q-5 0 -10.5 -4.5t-5.5 -12.5t5 -12.5t11 -4.5h128q7 0 12 4.5t5 12.5z" />
    <glyph glyph-name="uniE65E" unicode="&#xe65e;" 
d="M512 736q-122 0 -225 -56t-163 -152t-60 -209q0 -94 49 -176.5t151 -134.5q0 -34 -27.5 -81.5t-64.5 -86.5q60 5 109.5 18t71.5 22.5t55 26.5q7 3 10 5q48 -10 94 -10q122 0 225 56t163 152t60 209q0 85 -35.5 162t-95.5 133t-143 89t-174 33zM256 256q-27 0 -45.5 18.5
t-18.5 45.5t18.5 45.5t45.5 18.5t45.5 -18.5t18.5 -45.5t-18.5 -45.5t-45.5 -18.5zM512 256q-27 0 -45.5 18.5t-18.5 45.5t18.5 45.5t45.5 18.5t45.5 -18.5t18.5 -45.5t-18.5 -45.5t-45.5 -18.5zM768 256q-27 0 -45.5 18.5t-18.5 45.5t18.5 45.5t45.5 18.5t45.5 -18.5
t18.5 -45.5t-18.5 -45.5t-45.5 -18.5z" />
    <glyph glyph-name="uniE65F" unicode="&#xe65f;" 
d="M512 748q-122 0 -225 -60t-163 -163t-60 -225t60 -225t163 -163t225 -60t225 60t163 163t60 225t-60 225t-163 163t-225 60zM437 76l-224 224l75 75l149 -150l299 299l75 -75zM437 76z" />
    <glyph glyph-name="uniE660" unicode="&#xe660;" 
d="M600 -155h-179q-85 0 -125.5 1.5t-92 10t-72.5 28.5t-21 54v18q0 126 91 216t220 90h179q129 0 220 -90t91 -216v-18q0 -68 -109 -85q-56 -9 -202 -9zM502 269q-68 0 -125 33t-90 89t-33 122.5t33 123t90 89t124.5 32.5t124.5 -32.5t90 -89t33 -122.5q0 -101 -72.5 -173
t-174.5 -72z" />
    <glyph glyph-name="uniE661" unicode="&#xe661;" 
d="M512 748q-73 0 -141 -22.5t-123 -64t-96.5 -96.5t-64 -123t-22.5 -140q0 -91 35.5 -173.5t95.5 -142.5t142.5 -95.5t173 -35.5t173 35.5t142.5 95.5t95.5 142.5t35.5 173.5q0 45 -9.5 89.5t-26 84t-41 75.5t-54.5 66t-66 54.5t-75.5 41t-84 26t-89.5 9.5zM510 -17
q-27 0 -45.5 19t-18.5 46t18.5 45.5t45.5 18.5q8 0 15 -1.5t13.5 -4.5t12 -7.5t10 -10t7.5 -12t5 -14t2 -14.5q0 -40 -36 -58q-14 -6 -29 -7zM595 463v-1h-1v-1v0v0l-54 -254q-2 -7 -4.5 -12.5t-6 -9.5t-8.5 -6t-11 -2q-22 0 -30 32q-2 9 -15.5 70.5t-25.5 118.5l-12 57v1v0
v1v0v1v0v1h-1v1v0v1v0v1v1q-1 4 -1.5 8.5t-0.5 8.5q0 36 25 61t61 25t61 -25t25 -61q0 -9 -1 -17z" />
    <glyph glyph-name="uniE662" unicode="&#xe662;" 
d="M859 360q-9 -215 -216 -408q-68 -63 -126 -99q-6 4 -16 10.5t-40.5 29.5t-59 48t-64.5 65t-65 81t-54 94.5t-36 107.5q-17 54 -17 109q0 94 46.5 174.5t126.5 127t175 46.5q70 0 134.5 -27.5t111.5 -74t74.5 -111t27.5 -135.5q0 -9 -0.5 -18.5t-1.5 -19.5zM513 620
q-53 0 -98 -26.5t-71 -71t-26 -97.5t26 -98t71 -71t98 -26q80 0 137 57t57 138t-57 138t-137 57z" />
    <glyph glyph-name="uniE663" unicode="&#xe663;" 
d="M271 633h483q28 0 51.5 -14t37.5 -37.5t14 -51.5v-484q0 -42 -30.5 -72.5t-72.5 -30.5h-483q-43 0 -73.5 30.5t-30.5 72.5v484q0 21 8 40t22 33t33 22t41 8zM271 -23h483q28 0 48.5 20.5t20.5 48.5v484q0 28 -20.5 48.5t-48.5 20.5h-483q-29 0 -49.5 -20.5t-20.5 -48.5
v-484q0 -28 20.5 -48.5t49.5 -20.5z" />
    <glyph glyph-name="uniE664" unicode="&#xe664;" 
d="M271 633h483q28 0 51.5 -14t37.5 -37.5t14 -51.5v-484q0 -42 -30.5 -72.5t-72.5 -30.5h-483q-43 0 -73.5 30.5t-30.5 72.5v484q0 21 8 40t22 33t33 22t41 8zM271 -23h483q18 0 34 9.5t25.5 25.5t9.5 34v484q0 28 -20.5 48.5t-48.5 20.5h-483q-29 0 -49.5 -20.5
t-20.5 -48.5v-484q0 -28 20.5 -48.5t49.5 -20.5zM571 194q-12 -14 -22.5 -26.5t-21.5 -26t-23 -27.5t-27.5 -17.5t-31.5 6.5q-16 12 -49 43.5t-62 50.5t-59 20q-26 0 -34 21t4 42t38 21q20 -1 38.5 -6t38.5 -17.5t30.5 -20t34 -28t29.5 -25.5l5 -5l5 5q55 73 107 130v-140z
M769 396q-26 -27 -75.5 -77.5t-86.5 -87.5l-36 -37v140q92 96 137 135q13 11 28.5 11.5t26.5 -8.5t18 -21.5t4 -28t-16 -26.5z" />
    <glyph glyph-name="uniE665" unicode="&#xe665;" 
d="M64 749h445v-897h-445v897zM116 527h114v113h-17h-17h-17h-17h-17q-9 0 -17 -1q-3 0 -7 -5t-4 -9q-1 -16 -1 -98zM344 525h99q2 1 5.5 3.5t5.5 6t3 6.5q2 44 -1 82q0 4 -5.5 10t-9.5 6q-15 1 -97 1v-115zM232 76q0 81 -1 95q0 2 -1.5 4.5t-3.5 4.5t-4.5 3.5t-4.5 3
t-4 1.5q-34 2 -79 0q-5 0 -11 -4.5t-6 -7.5q-1 -18 -1 -100h116zM345 189v-112h112q0 80 -1 95q0 1 -1 3.5t-2.5 4.5t-4 4t-4.5 3t-4 1q-14 1 -95 1zM230 414q-83 0 -102 -1q-3 0 -7 -4.5t-4 -7.5q-1 -18 -1 -99h114v38v34v40zM457 414h-25h-27h-23q-13 0 -25 -1
q-3 0 -8 -3.5t-5 -5.5q-1 -21 -1 -104q82 0 95 1q5 0 11.5 5.5t6.5 10.5q1 14 1 97zM679 74v-222h-106v500h387v-500h-107v222h-174zM571 416v50h389v-50h-389z" />
    <glyph glyph-name="uniE666" unicode="&#xe666;" 
d="M101 356l57 175q197 -69 286 -120q-12 112 -18 189t-7 119h180q-4 -123 -29 -307q128 65 292 119l57 -175q-158 -52 -308 -69q75 -65 212 -233l-148 -104q-72 97 -169 264q-92 -173 -161 -264l-146 104q143 176 205 233q-159 31 -303 69z" />
    <glyph glyph-name="uniE667" unicode="&#xe667;" 
d="M512 812q-104 0 -199 -40.5t-163.5 -109t-109 -163.5t-40.5 -199t40.5 -199t109 -163.5t163.5 -109t199 -40.5t199 40.5t163.5 109t109 163.5t40.5 199t-40.5 199t-109 163.5t-163.5 109t-199 40.5z" />
    <glyph glyph-name="uniE668" unicode="&#xe668;" 
d="M629 396v-544h-234v544h-235l352 352l352 -352h-235z" />
    <glyph glyph-name="uniE669" unicode="&#xe669;" 
d="M637 107h-254v64l112 108q35 34 49 57t14 47q0 56 -60 56q-50 0 -96 -40v72q50 33 113 33q29 0 52 -7.5t40 -21.5q34 -29 34 -81q0 -35 -21 -70.5t-63 -73.5l-81 -73v-2h161v-68zM512 783q-98 0 -187.5 -38t-154.5 -103t-103 -154.5t-38 -187.5q0 -79 24 -152.5t69 -133
t104.5 -104.5t133 -69t152.5 -24q98 0 187.5 38t154.5 103t103 154.5t38 187.5q0 66 -17 128.5t-48.5 115.5t-76 97.5t-97.5 76t-115.5 48.5t-128.5 17zM512 -120q-114 0 -210.5 56.5t-153 153t-56.5 210.5q0 85 33.5 163t89.5 134t134 89.5t163 33.5t163 -33.5t134 -89.5
t89.5 -134t33.5 -163q0 -114 -56.5 -210.5t-153 -153t-210.5 -56.5z" />
    <glyph glyph-name="uniE66A" unicode="&#xe66a;" 
d="M629 204v544h-234v-544h-235l352 -352l352 352h-235z" />
    <glyph glyph-name="uniE66B" unicode="&#xe66b;" 
d="M423 -57zM356 -57q0 28 19.5 47.5t47.5 19.5q13 0 25.5 -5.5t21.5 -14t14.5 -21t5.5 -26.5q0 -28 -20 -47.5t-47 -19.5q-41 0 -60 37q-7 14 -7 30zM869 -57zM802 -57q0 28 19.5 47.5t47.5 19.5t47.5 -19.5t19.5 -47.5t-19.5 -47.5t-47.5 -19.5t-47.5 19.5t-19.5 47.5z
M400 233h491q37 0 63 26t26 63v156q0 37 -26 63.5t-63 26.5h-491q-18 0 -31 -13t-13 -31.5t13 -32t31 -13.5h447q18 0 31 -13t13 -31v-67q0 -19 -13 -32t-31 -13h-531l-104 369q-2 10 -9 18t-17 12t-20 3h-78q-18 0 -31 -13t-13 -32q0 -12 6.5 -22t19.5 -16t32 -6h34
l153 -547q2 -5 4 -9.5t5 -8t7 -6.5t8 -5t9 -3t9 -1h1h2h579q13 0 23 6t16 16t6 22q0 19 -13 32t-32 13h-513q-12 0 -22 6t-16 16t-6 22q0 19 13 32t31 13z" />
    <glyph glyph-name="uniE66C" unicode="&#xe66c;" 
d="M943 480q-36 86 -102 152q-17 17 -35 31.5t-37 27.5t-39 24t-42 20q-44 19 -91 28.5t-95 9.5q-97 0 -186 -38q-86 -36 -153 -103q-16 -16 -30.5 -34t-27.5 -37t-24 -39t-20 -42q-19 -44 -28.5 -91t-9.5 -95q0 -98 38 -187q36 -85 102.5 -151.5t152.5 -102.5
q44 -19 91 -28.5t95 -9.5q97 0 186 38q86 36 152.5 102.5t102.5 151.5q19 45 28.5 91.5t9.5 95.5q0 97 -38 186zM801 -5q-60 -60 -137 -92t-162 -32t-162 32t-137 92q-24 24 -43.5 51t-34.5 56.5t-25 60.5t-15 64t-5 67q0 56 14 109.5t42 101.5t67 88q60 59 137 91t162 32
q56 0 109.5 -14t101.5 -42t88 -67q60 -60 91.5 -137.5t31.5 -161.5q0 -56 -14 -109.5t-42 -101.5t-67 -88zM530 609q0 12 -8 20t-20 8t-20 -8t-8 -20v-302l1 -6q-1 -4 -1 -7q0 -2 0.5 -4.5t1 -4.5t1.5 -4t2.5 -4t3 -3.5t3 -2.5t3.5 -2l4 -2q2 -1 5 -1h4h315q12 0 20.5 8
t8.5 20q0 3 -1 6l-2 4q-1 3 -2.5 5.5t-3.5 4.5t-4 3.5t-4.5 2.5t-5.5 1.5t-6 0.5h-287v287z" />
    <glyph glyph-name="uniE66D" unicode="&#xe66d;" 
d="M643 107h-244v65h82v250l-84 -19v67l165 34v-332h81v-65zM512 783q-98 0 -187.5 -38t-154.5 -103t-103 -154.5t-38 -187.5q0 -79 24 -152.5t69 -133t104.5 -104.5t133 -69t152.5 -24q98 0 187.5 38t154.5 103t103 154.5t38 187.5q0 66 -17 128.5t-48.5 115.5t-76 97.5
t-97.5 76t-115.5 48.5t-128.5 17zM512 -120q-114 0 -210.5 56.5t-153 153t-56.5 210.5q0 85 33.5 163t89.5 134t134 89.5t163 33.5t163 -33.5t134 -89.5t89.5 -134t33.5 -163q0 -114 -56.5 -210.5t-153 -153t-210.5 -56.5z" />
    <glyph glyph-name="uniE66E" unicode="&#xe66e;" 
d="M518 743l148 -293l312 -41l-242 -244l66 -297l-284 164l-284 -164l66 297l-242 244l312 41z" />
    <glyph glyph-name="uniE66F" unicode="&#xe66f;" 
d="M762 641h-218v127q0 4 -1 7t-2.5 5.5t-4 4.5t-6 3t-6.5 1h-11q-8 0 -14 -6t-6 -15v-127h-215q-19 0 -32.5 -13.5t-13.5 -32.5v-39q0 -7 2 -14t6 -12t9 -9.5t11.5 -7t13.5 -3.5l20 -570q0 -30 21 -50.5t50 -20.5h306q30 0 50.5 20.5t20.5 50.5l20 570q13 0 23 6.5t16 17
t6 22.5v39q0 9 -3.5 17.5t-9.5 15t-14.5 10t-17.5 3.5zM701 -60q0 -5 -1.5 -9.5t-4 -8t-6 -6.5t-8.5 -4.5t-10 -1.5h-306q-13 0 -21.5 9t-8.5 21l-20 570h406l-20 -569v-1zM767 556q-2 -4 -5 -5h-484q-5 0 -5 5v39q2 4 5 5h484q2 0 3.5 -1.5t1.5 -3.5v-39zM584 101l-198 203
l29 28l199 -203zM618 226l-108 104l28 30l108 -104z" />
    <glyph glyph-name="uniE670" unicode="&#xe670;" 
d="M959 403l-300 59l-148 272l-147 -272l-300 -59l209 -227l-38 -308l276 132l277 -132l-38 308zM512 48v594l119 -220l243 -48l-171 -183l33 -250z" />
    <glyph glyph-name="uniE671" unicode="&#xe671;" 
d="M749 178l37 -303l-274 130l-274 -130l37 303l-207 222l298 58l146 267l146 -267l298 -58zM631 420l-119 222l-119 -222l-242 -47l168 -185l-30 -251l223 108l223 -108l-30 251l168 185z" />
    <glyph glyph-name="uniE672" unicode="&#xe672;" horiz-adv-x="1111" 
d="M1047 -24l-178 329q29 65 29 135q0 69 -26.5 131t-71.5 106.5t-107 71t-130 26.5q-45 0 -88.5 -12t-80 -33.5t-67.5 -52.5t-52.5 -67.5t-33.5 -80t-12 -89.5q0 -72 29 -138l-178 -326q-10 -18 2 -33q12 -16 31 -11l153 35l52 -146q2 -4 4.5 -8t6 -6.5t7.5 -4t9 -1.5h1h1
q18 0 27 16l155 290q18 -2 34 -2q6 0 11 0.5t10.5 0.5t10.5 1l159 -290q4 -8 11 -12t15 -4h3q19 1 26 20l52 146l153 -35q19 -5 30.5 11t2.5 33v0zM352 -94l-38 107q-4 11 -14 16.5t-22 2.5l-112 -26l128 235q66 -89 173 -122zM290 440q0 114 80 194t193 80q37 0 72.5 -10
t65.5 -27.5t55.5 -43t43 -55.5t27 -65t9.5 -73q0 -113 -80 -193t-193 -80t-193 80t-80 193zM848 32q-7 2 -14.5 0t-13 -7t-7.5 -12l-39 -108l-117 214q54 16 99 48t78 76l128 -237zM848 32z" />
    <glyph glyph-name="uniE673" unicode="&#xe673;" 
d="M804 699q5 -7 13 -19.5t28.5 -49.5t36.5 -72t29 -79.5t13 -78.5q0 -59 -39 -99t-96 -40q-34 0 -70 17t-69 51l-123 -83l-134 83q-22 -22 -46.5 -37t-48 -21.5t-46.5 -6.5q-62 0 -106 41t-44 99q0 25 6.5 54.5t17 57t23.5 55.5t25.5 50.5t23 40t17.5 27.5l7 10h582z
M823 735h-620l-11 -16q-6 -9 -15.5 -23.5t-30.5 -52.5t-37.5 -74t-29.5 -82t-13 -83q0 -73 54.5 -124.5t131.5 -51.5q78 0 145 57l130 -81l119 80q68 -58 143 -58q72 0 121.5 50t49.5 124q0 37 -13 83.5t-29.5 83t-38 75.5t-30.5 53.5t-15 23.5zM745 -159h-464
q-22 0 -42 8.5t-34.5 23t-23 34.5t-8.5 42v214h36v-214q0 -15 5.5 -28.5t15.5 -23t23 -15t28 -5.5h464q29 0 50 21t21 51v214h36v-214q0 -18 -5.5 -34.5t-15 -29.5t-23 -23t-30 -15.5t-33.5 -5.5z" />
    <glyph glyph-name="uniE674" unicode="&#xe674;" 
d="M512 -192q-98 0 -186.5 38t-153 102.5t-102.5 153t-38 186.5t38 186.5t102.5 153t153 102.5t186.5 38t186.5 -38t153 -102.5t102.5 -153t38 -186.5t-38 -186.5t-102.5 -153t-153 -102.5t-186.5 -38zM512 704q-113 0 -209 -55.5t-151.5 -151.5t-55.5 -209t55.5 -209
t151.5 -151.5t209 -55.5t209 55.5t151.5 151.5t55.5 209q0 85 -33 162t-88.5 132.5t-132.5 88.5t-162 33zM291 53v65q2 1 4.5 2.5t11 5.5t17.5 8.5t23 10.5t28 11t32 10t35 9t36.5 6t37.5 2q32 0 65.5 -6.5t59.5 -16t47.5 -19.5t32.5 -16l11 -7v-65q-4 3 -11.5 7t-31.5 15.5
t-48.5 20t-59 15.5t-65.5 7q-51 0 -107 -16.5t-87 -32t-31 -16.5zM645.5 306q-27.5 0 -46.5 32t-19 77q0 30 8.5 55t24 39.5t32.5 14.5q11 0 21 -5.5t18 -15.5t14 -23.5t9.5 -30t3.5 -34.5q0 -45 -19 -77t-46.5 -32zM385.5 306q-27.5 0 -46.5 32t-19 77t19 77t46.5 32
t46.5 -32t19 -77t-19 -77t-46.5 -32z" />
    <glyph glyph-name="uniE675" unicode="&#xe675;" 
d="M859 -220h-708h-2q-26 2 -49.5 25.5t-23.5 72.5v842q-4 38 17 62q19 22 51 22h489q15 0 25 -10l279 -285q11 -11 11 -24v-614q0 -20 -12 -43q-5 -10 -10.5 -17.5t-12.5 -13t-15.5 -9.5t-18 -6t-20.5 -2zM154 -148l702 -1q6 0 9.5 1.5t4.5 2t3 3.5q3 4 4 14v598l-258 261
l-471 -1v-851q0 -23 4 -27h1h1zM149 -150h2h1h-2h-1zM715 460q-26 0 -47 7.5t-36 22.5q-28 29 -28 67v217q0 5 2 9t5 7.5t7 4.5q15 6 26 -5l284 -289q11 -11 5 -25.5t-21 -14.5q-65 0 -125.5 -0.5t-69.5 -0.5h-1h-1zM651 557v-5q0 -3 2.5 -9.5t5.5 -11.5q15 -24 55 -24h1h2
h7h22h30h39q6 1 13 1h15h13l-205 210v-161zM730 -3h-438q-15 0 -26 10.5t-11 25.5q0 10 5 18.5t13.5 13.5t18.5 5h438q15 0 25.5 -11t10.5 -26q0 -7 -3 -13.5t-8 -11.5t-11.5 -8t-13.5 -3zM730 143h-438q-8 0 -14.5 3t-11.5 7.5t-8 11.5t-3 14q0 15 11 25.5t26 10.5h438
q15 0 25.5 -10.5t10.5 -25.5q0 -7 -3 -14t-8 -11.5t-11.5 -7.5t-13.5 -3zM730 289h-438q-8 0 -14.5 2.5t-11.5 7.5t-8 11.5t-3 14.5q0 10 5 18t13.5 13t18.5 5h438q7 0 13.5 -3t11.5 -8t8 -11.5t3 -14t-3 -14t-8 -11.5t-11.5 -7.5t-13.5 -2.5z" />
    <glyph glyph-name="uniE676" unicode="&#xe676;" 
d="M511 542q84 0 159.5 -30.5t133 -85.5t91.5 -126h67q-55 135 -177.5 219t-273.5 84q-100 0 -190 -39t-157 -107t-103 -157h67q52 109 155 175.5t228 66.5zM511.5 57q-125.5 0 -228.5 66.5t-155 176.5h-67q55 -136 177.5 -220t273 -84t273 84t177.5 220h-67
q-52 -110 -155 -176.5t-228.5 -66.5zM350 300q0 -27 8 -51.5t23 -44.5t35 -35t44.5 -23t50.5 -8q68 0 115 47.5t47 114.5t-47 114t-115 47q-18 0 -36.5 -4t-34.5 -12t-30 -19t-25 -25t-19 -30t-12 -34.5t-4 -36.5zM613 300q0 -28 -13.5 -51.5t-37 -37t-51.5 -13.5
q-41 0 -71 30t-30 71.5t30 71.5t71.5 30t71.5 -30t30 -71z" />
    <glyph glyph-name="uniE677" unicode="&#xe677;" 
d="M881 457q-10 2 -24.5 4t-41 3t-45 1.5t-61.5 1.5t-66 2q7 32 7 92q0 25 -5.5 49t-15.5 44.5t-23.5 38.5t-28.5 30.5t-32 19.5t-33 7q-34 0 -58.5 -24.5t-25.5 -58.5q0 -9 -0.5 -18t-2 -20t-4 -21.5t-6 -22t-8.5 -23t-11 -22.5t-14.5 -21.5t-18 -20.5t-21.5 -18.5
t-26 -16.5q-3 -1 -10 -4.5t-12.5 -6.5t-7.5 -3l2 -1q-26 22 -56 22h-84q-35 0 -59.5 -24.5t-24.5 -59.5v-449q0 -34 24.5 -59t59.5 -25h84q24 0 44 13.5t31 35.5l1 -1h3q2 -1 4 -1l1 -1q33 -8 114 -26q85 -20 167 -20h153q14 0 26.5 2t23.5 6.5t20.5 11t17 15t13.5 19.5
q12 21 26 53t35 91.5t35 141.5t14 167q0 19 -8 37.5t-27 35t-45 24.5zM260 -63q0 -5 -2.5 -10.5t-6 -9t-8.5 -6t-11 -2.5h-84q-12 0 -20 8.5t-8 19.5v449q0 11 8 19.5t20 8.5h84q12 0 20 -8.5t8 -19.5v-449zM904 343q-2 -58 -9 -111.5t-16.5 -93t-20 -74.5t-20.5 -58
t-18.5 -40t-13.5 -25l-5 -7q-4 -8 -10 -13.5t-16.5 -8.5t-24.5 -3h-153q-75 0 -155 18q-111 26 -130 31l4 412v31q46 19 80 50t52 67.5t27 73t9 74.5q0 7 3.5 13.5t10 10.5t14.5 4q25 0 53.5 -41t28.5 -92q0 -49 -4 -71.5t-22 -75.5q133 0 198.5 -1.5t76.5 -3t28 -6.5
q34 -9 34 -43q0 -1 -1 -17z" />
    <glyph glyph-name="uniE678" unicode="&#xe678;" 
d="M441 800h-395q-19 0 -32.5 -13.5t-13.5 -32.5v-395q0 -19 13.5 -32.5t32.5 -13.5h395q12 0 22.5 6.5t17 17t6.5 22.5v395q0 19 -13.5 32.5t-32.5 13.5zM438 408q0 -19 -13.5 -32.5t-32.5 -13.5h-297q-30 0 -42 28q-4 9 -4 18v297q0 19 13.5 32.5t32.5 13.5h297
q19 0 32.5 -13.5t13.5 -32.5v-297zM978 800h-395q-19 0 -32.5 -13.5t-13.5 -32.5v-395q0 -19 13.5 -32.5t32.5 -13.5h395q12 0 23 6.5t17 17t6 22.5v395q0 19 -13.5 32.5t-32.5 13.5zM975 408q0 -12 -6.5 -22.5t-17 -17t-22.5 -6.5h-297q-12 0 -22.5 6.5t-17 17t-6.5 22.5
v297q0 12 6.5 22.5t17 17t22.5 6.5h297q19 0 32.5 -13.5t13.5 -32.5v-297zM441 263h-395q-12 0 -23 -6.5t-17 -17t-6 -22.5v-395q0 -19 13.5 -32.5t32.5 -13.5h395q12 0 22.5 6t17 17t6.5 23v395q0 19 -13.5 32.5t-32.5 13.5zM438 -129q0 -19 -13.5 -32.5t-32.5 -13.5h-297
q-9 0 -17.5 4t-14.5 10t-10 14.5t-4 17.5v297q0 19 13.5 32.5t32.5 13.5h297q19 0 32.5 -13.5t13.5 -32.5v-297zM978 263h-395q-9 0 -17.5 -4t-14.5 -10t-10 -14.5t-4 -17.5v-395q0 -19 13.5 -32.5t32.5 -13.5h395q12 0 23 6t17 17t6 23v395q0 19 -13.5 32.5t-32.5 13.5z
M975 -129q0 -12 -6.5 -22.5t-17 -17t-22.5 -6.5h-297q-12 0 -22.5 6.5t-17 17t-6.5 22.5v297q0 19 13.5 32.5t32.5 13.5h297q12 0 22.5 -6.5t17 -17t6.5 -22.5v-297z" />
    <glyph glyph-name="uniE679" unicode="&#xe679;" 
d="M996 -182h-227q-9 0 -15 6t-6 15v913q0 9 6 15.5t15 6.5h227q9 0 15 -6.5t6 -15.5v-913q0 -9 -6 -15t-15 -6zM790 -140h185v871h-185v-871zM624 -182h-227q-5 0 -10 2.5t-8 7.5t-3 11v389q0 9 6.5 15.5t14.5 6.5h227q3 0 6.5 -1.5t6 -3.5t4.5 -4.5t3 -5.5t1 -7v-389
q0 -9 -6 -15t-15 -6zM419 -140h184v347h-184v-347zM252 -182h-226q-9 0 -15.5 6t-6.5 15v580q0 9 6.5 15.5t15.5 6.5h226q5 0 8.5 -2t6.5 -4.5t4.5 -6.5t1.5 -9v-580q0 -9 -6 -15t-15 -6zM47 -140h184v538h-184v-538z" />
    <glyph glyph-name="uniE67A" unicode="&#xe67a;" 
d="M864 687q46 0 79 -27t33 -65v-424q0 -25 -15 -46t-41 -33.5t-56 -12.5h-21h-75l32 -68l16 -33l-175 95l-11 6h-12h-458q-46 0 -79 27t-33 65v424q0 19 9 36t24 29.5t35.5 19.5t43.5 7h704zM864 735h-704q-66 0 -113 -41t-47 -99v-424q0 -58 47 -99t113 -41h458l304 -166
l-79 166h21q66 0 113 41t47 99v424q0 58 -47 99t-113 41zM518 197h-320q-9 0 -16 4.5t-11.5 11.5t-4.5 16t4.5 16t11.5 11.5t16 4.5h320q13 0 22.5 -9.5t9.5 -22.5t-9.5 -22.5t-22.5 -9.5zM608 364h-416q-13 0 -22.5 9.5t-9.5 22.5t9.5 22.5t22.5 9.5h416q13 0 22.5 -9.5
t9.5 -22.5t-9.5 -22.5t-22.5 -9.5zM832 531h-640q-13 0 -22.5 9.5t-9.5 22.5t9.5 22.5t22.5 9.5h640q13 0 22.5 -9.5t9.5 -22.5t-9.5 -22.5t-22.5 -9.5z" />
    <glyph glyph-name="uniE67B" unicode="&#xe67b;" horiz-adv-x="1030" 
d="M498 651v-702l-279 171l-12 7h-13h-100q-7 0 -14 4t-10.5 10.5t-3.5 14.5v288q0 8 3.5 14.5t10.5 10.5t14 4h100h13l12 7zM507 713l-313 -192h-100q-15 0 -29.5 -6t-24.5 -16.5t-16 -24.5t-6 -30v-288q0 -32 22.5 -54.5t53.5 -22.5h100l313 -192q16 0 27.5 11.5
t11.5 27.5v748q0 16 -11.5 27.5t-27.5 11.5zM857 -85q-5 0 -9.5 2t-7.5 5q-2 2 -3.5 4t-2 4t-1 4.5t-0.5 4.5t0.5 4.5t1 4.5t2 4t3.5 4q93 93 126 218.5t0 251t-126 218.5q-4 4 -5.5 8t-1.5 9t1.5 9.5t5.5 7.5q14 15 31 2q2 -1 3 -2q76 -77 116 -177t40 -201t-40 -201
t-116 -177q-7 -7 -17 -7zM712 101q-4 0 -8.5 2t-8 5.5t-5.5 8t-2 9t2 9t5 7.5q43 43 58 100.5t0 115t-58 100.5q-3 3 -5 7.5t-2 9t2 9t5 8.5q7 7 17 7t17 -7q80 -80 80 -192q0 -36 -9.5 -70.5t-27 -65t-43.5 -56.5q-7 -6 -17 -7z" />
    <glyph glyph-name="uniE67C" unicode="&#xe67c;" 
d="M889 -212h-754q-23 0 -43 11.5t-31.5 31t-11.5 43.5v852q0 36 25.5 61t60.5 25h575l265 -269v-669q0 -36 -25.5 -61t-60.5 -25zM135 768q-17 0 -29 -12.5t-12 -29.5v-852q0 -17 12 -29.5t29 -12.5h754q8 0 16 3.5t13.5 9t8.5 13t3 16.5v651l-239 243h-556zM221 596h252
v-44h-252v44zM221 482h252v-44h-252v44zM221 369h252v-45h-252v45zM221 195h579v-45h-579v45zM221 48h579v-44h-579v44zM951 513h-181q-23 0 -43 11.5t-31 31t-11 43.5v185h44v-185q0 -17 12 -29.5t29 -12.5h181v-44z" />
    <glyph glyph-name="uniE67D" unicode="&#xe67d;" 
d="M965 161h-906q-19 0 -31 15q-11 16 -6 34l174 563q3 12 13.5 19.5t22.5 7.5h558q12 0 22 -7.5t14 -19.5l172 -555q5 -9 5 -19q0 -8 -3 -15t-8 -12t-12 -8t-15 -3zM60 199h904l-1 2l-1 3l-173 557h-556zM984 37h-944q-8 0 -13.5 6t-5.5 14t5.5 13.5t13.5 5.5h944
q8 0 13.5 -5.5t5.5 -13.5t-5.5 -14t-13.5 -6zM713 614h-402q-8 0 -13.5 6t-5.5 14t5.5 13.5t13.5 5.5h402q5 0 9.5 -2.5t7 -7t2.5 -9.5t-2.5 -9.5t-7 -7.5t-9.5 -3zM749 463h-474q-8 0 -14 5.5t-6 13.5q0 4 1.5 7.5t4.5 6.5t6.5 4.5t7.5 1.5h474q8 0 14 -6t6 -14q0 -3 -1 -6
t-3 -5.5t-4.5 -4t-5.5 -2.5t-6 -1zM786 311h-548q-8 0 -13.5 5.5t-5.5 13.5q0 6 2.5 10.5t7 7t9.5 2.5h548q5 0 9.5 -2.5t7 -7t2.5 -10t-2.5 -10t-7 -7t-9.5 -2.5zM984 -79h-944q-5 0 -9.5 2.5t-7 7t-2.5 9.5q0 8 5.5 13.5t13.5 5.5h944q8 0 13.5 -5.5t5.5 -13.5t-5.5 -13.5
t-13.5 -5.5zM984 -196h-944q-8 0 -13.5 5.5t-5.5 13.5t5.5 14t13.5 6h944q8 0 13.5 -6t5.5 -14q0 -5 -2.5 -9.5t-7 -7t-9.5 -2.5z" />
    <glyph glyph-name="uniE67E" unicode="&#xe67e;" 
d="M949 -84l-162 162q41 50 63 105q31 74 31 156q0 79 -30 154l-1 2q-10 25 -23 48t-29 44t-35 39l-1 2q-14 14 -29.5 27t-32 24t-34.5 20.5t-37 17.5q-76 31 -156 31q-83 0 -157.5 -31.5t-131.5 -88.5q-28 -28 -50.5 -61.5t-38.5 -71.5q-31 -76 -31 -156q0 -79 30 -154
l1 -2q31 -76 89 -133q58 -58 133 -89q73 -30 156 -30t156 30q57 24 105 64l162 -162q6 -6 13 -8.5t14 -2.5t13.5 2.5t12.5 8.5q2 2 4 5t3.5 5.5t2.5 6t1 6.5v6q0 4 -1 7t-2.5 6t-3.5 5.5t-4 5.5zM709 103v0h-1q-45 -46 -108 -73q-62 -25 -127.5 -25t-127.5 25
q-30 13 -57.5 31.5t-50.5 41.5v0q-48 49 -73 109v1q-12 29 -18.5 61t-6.5 65q0 34 6.5 66t18.5 62q26 62 73 108q97 98 236 98q65 0 127 -25q31 -13 58.5 -31.5t50.5 -41.5l2 -2q44 -45 70 -106l1 -2q25 -62 25 -126q0 -67 -26 -127q-5 -13 -11 -24.5t-13 -23t-14.5 -22
t-16 -20.5t-17.5 -19zM370 583q-23 -10 -45 -24q-25 -19 -39 -33q-9 -9 -17.5 -19t-14.5 -20q-16 -23 -25 -45q-2 -6 -1.5 -11.5t4.5 -10.5t9 -7t9 -2t8 1.5t7.5 4.5t5.5 8q8 20 19 37v-1q10 15 28 33q16 16 33 27q14 11 36 20q9 4 12.5 12.5t0.5 17.5q-4 9 -12.5 12
t-17.5 0zM715 362q-9 0 -15.5 -6.5t-6.5 -16.5q0 -21 -4.5 -42.5t-12.5 -41.5v-2q-17 -38 -48 -69q-16 -16 -33.5 -27.5t-37.5 -20.5q-20 -8 -41.5 -12.5t-42.5 -4.5q-6 0 -11.5 -3t-8.5 -8t-3 -11t3 -11t8.5 -8.5t11.5 -3.5q26 0 51.5 5.5t49.5 15.5q48 19 86 57
q35 35 57 85v1q20 49 20 101q0 10 -6.5 16.5t-15.5 6.5z" />
    <glyph glyph-name="uniE67F" unicode="&#xe67f;" 
d="M883 -125h-673q-25 0 -43 17.5t-18 43.5v6q1 32 10 42.5t28 10.5h661q6 0 13 4t18 15q19 18 19 31v661q0 21 -21.5 42.5t-43.5 21.5h-397v0h-155h-5h-1h-65q-27 0 -50.5 -13.5t-37.5 -37t-14 -51.5v-708v-24q0 -42 30 -72t72 -30h673q4 0 8 1.5t6.5 4t4 6.5t1.5 8
q0 9 -6 15t-14 6zM296 729h120v-191l-35 34q-10 9 -22.5 9t-21.5 -9l-41 -39v196zM210 729h45v-214q0 -19 19 -28q8 -3 16 -3q15 0 24 9l45 43l44 -43q15 -14 34.5 -6t19.5 29v213h376q3 0 8.5 -4.5t10 -10t5.5 -9.5v-655q-6 -8 -14 -14h-656q-22 0 -38 -8v640q0 25 18 43
t43 18z" />
    <glyph glyph-name="uniE680" unicode="&#xe680;" horiz-adv-x="1025" 
d="M767 402h-536l-42 159h-155q-10 0 -17 -7t-7 -17q0 -6 3.5 -11.5t8.5 -8.5t12 -3h119l119 -455q-37 -24 -37 -68q0 -33 23.5 -57t57 -24t57 24t23.5 57q0 18 -7 34h124q-8 -16 -8 -34q0 -33 23.5 -57t57 -24t57 24t23.5 57q0 27 -15.5 48t-40.5 29l-4 2q-2 1 -4 1.5
t-5 0.5h-280l-16 61h385zM349 -9q0 -14 -10 -24t-23.5 -10t-23.5 10t-10 24t10 24t23.5 10t23.5 -10t10 -24zM586 -43q-14 0 -24 10t-10 24q0 9 4.5 17t12.5 12.5t17 4.5q14 0 24 -10t10 -24q0 -7 -3 -13t-7.5 -10.5t-10.5 -7.5t-13 -3zM289 180l-46 175h461l-53 -175h-362z
M900 507h-43v43q0 6 -3 11.5t-8.5 8.5t-12 3t-12 -3t-8.5 -8.5t-3 -11.5v-43h-43q-9 0 -16 -7t-7 -16q0 -4 1 -7.5t3.5 -6.5t5 -5.5t6.5 -3.5t7 -1h43v-43q0 -9 7 -16t17 -7q6 0 11.5 3t8.5 8.5t3 11.5v43h43q3 0 5.5 0.5t5 2t4.5 3t3.5 3.5t2.5 4.5t1.5 5t0.5 5.5
q0 6 -3 11.5t-8.5 8.5t-11.5 3zM834 674q-20 0 -39 -4t-35.5 -11t-32 -17.5t-28.5 -23.5t-23.5 -28t-17.5 -32t-11 -36t-4 -38q0 -22 5 -45h49q-2 7 -3.5 14t-2.5 15t-1 16q0 59 42 101t101.5 42t101.5 -42t42 -101.5t-42 -101.5t-101 -42h-10q-5 0 -9.5 1t-9 1.5t-9 2
t-8.5 2.5v-48q23 -6 46 -6q51 0 95 25.5t69.5 69.5t25.5 96q0 78 -55.5 134t-134.5 56z" />
    <glyph glyph-name="uniE681" unicode="&#xe681;" 
d="M774 296q-23 15 -49.5 21t-55.5 3v44h-16l14 72q4 15 0 30t-14 28t-25 22h1l14 72l-76 16l-14 -70q-28 -4 -47.5 -20t-24.5 -40v0l-23 -110h-53l-53 241l31 3l-14 141l-49 -5l-3 14l-38 -9l-4 40l-49 -5l-3 14l-40 -10l95 -424h-9v-549h400v47q66 38 112 106
q62 92 60 188t-67 140zM257 645l32 3l-8 83l82 -367h-43zM762 -19q-19 -28 -43 -51t-50 -39v400q49 4 87 -21q57 -39 59 -123.5t-53 -165.5z" />
    <glyph glyph-name="uniE682" unicode="&#xe682;" 
d="M436 -17v447q0 16 -10.5 26.5t-25.5 10.5t-26 -10.5t-11 -26.5v-447q0 -15 11 -26t26 -11t25.5 11t10.5 26zM370 702h279q16 0 26.5 11t10.5 26t-10.5 25.5t-26.5 10.5h-279q-10 0 -18 -4.5t-13 -13t-5 -18.5q0 -8 3 -14.5t7.5 -11.5t11.5 -8t14 -3zM825 526
q-13 0 -23 -8.5t-13 -20.5v-580q0 -6 -2.5 -11.5t-6.5 -9.5t-9.5 -6.5t-11.5 -2.5h-499q-12 0 -20.5 9t-8.5 21v580h-1q-1 6 -4.5 11.5t-8 9t-10.5 6t-13 2.5q-13 0 -23 -8.5t-13 -20.5v-639q0 -18 12.5 -31t31.5 -13h616q12 0 22 6t16 16t6 22v639h-1q-2 12 -12 20.5
t-24 8.5zM657 -17v447q0 16 -11 26.5t-26 10.5q-10 0 -18.5 -5t-13.5 -13.5t-5 -18.5v-447q0 -15 11 -26t26 -11t26 11t11 26zM928 658h-836q-16 0 -26.5 -11t-10.5 -26t10.5 -25.5t26.5 -10.5h836q15 0 26 10.5t11 25.5t-11 26t-26 11z" />
    <glyph glyph-name="uniE683" unicode="&#xe683;" 
d="M16 784zM17 474h132v132h-132v-132zM281 606v-132h726v132h-726zM17 210h132v132h-132v-132zM281 210h726v132h-726v-132zM17 -53h132v132h-132v-132zM281 -53h726v132h-726v-132z" />
    <glyph glyph-name="uniE684" unicode="&#xe684;" 
d="M510 790q-102 0 -195 -40t-160 -107t-106.5 -160t-39.5 -195t39.5 -195t106.5 -160t160 -107t195 -40q82 0 158.5 25.5t138.5 72t108.5 108t71.5 138t25 158.5t-25 158.5t-71.5 138t-108.5 108t-138.5 72t-158.5 25.5zM90 288q0 81 29 154t82 130l241 -358l353 -235
q-19 -17 -39.5 -32t-43 -27.5t-46.5 -22t-49.5 -16t-52 -10t-54.5 -3.5q-114 0 -210.5 56t-153 153t-56.5 211zM288 514l261 -182l-82 -81zM821 5l-238 344l-358 248q57 53 130.5 82.5t154.5 29.5q115 0 211.5 -56.5t153 -153.5t56.5 -211q0 -162 -110 -283z" />
    <glyph glyph-name="uniE685" unicode="&#xe685;" horiz-adv-x="1026" 
d="M501 -197q-97 0 -185 38t-152 101.5t-101.5 152t-37.5 184.5q0 65 17 126.5t47.5 114t74.5 96.5t96.5 74.5t114 47.5t126.5 17q96 0 184 -37.5t152 -101.5t101.5 -152t37.5 -185q0 -77 -24 -149.5t-68 -131t-102.5 -102.5t-131 -68.5t-149.5 -24.5zM501 682
q-110 0 -202.5 -54t-146.5 -147t-54 -202t54 -201.5t146.5 -146.5t202 -54t202 54t146.5 146.5t54 201.5q0 55 -14.5 107t-40.5 96t-63 81.5t-81.5 63.5t-96.5 40.5t-106 14.5zM539 345v-306q0 -7 -1.5 -12.5t-4 -9.5t-7 -7t-10 -4t-12.5 -1h-7q-35 0 -35 34v306
q0 6 1.5 11.5t4 10t7 7.5t10 4t12.5 2h9q33 0 33 -35zM538 507v-74h-73v74h73z" />
    <glyph glyph-name="uniE686" unicode="&#xe686;" 
d="M250 109q-1 0 -2 -1l-3 -3q-56 -55 -60 -58q-40 -38 -92 -20q-17 6 -29 16.5t-19.5 25t-9.5 32.5q-1 1 -1 3v3v3v3v177v216v176q0 23 11 42.5t30.5 30.5t41.5 11h575q15 0 29 -5t24.5 -14t18.5 -21.5t10 -27.5q1 -4 1 -8v-10q1 -44 1 -58t-1 -58q0 -8 8 -8q58 1 119 1
q20 -1 37 -8.5t29 -21.5t17 -32q1 -2 1.5 -4t0.5 -4.5t0.5 -4.5t0.5 -4v-5v-570q0 -37 -24.5 -63t-61.5 -28q-13 0 -24.5 2.5t-21.5 8.5t-19 15q-16 14 -34.5 32t-31 30.5t-34.5 33.5t-32 31q-61 58 -65 62q-23 23 -57 23h-249q-50 0 -76 42q-1 1 -8 17v0zM93 397v-278v-1
v-3v-3v-3q2 -21 23 -27q16 -4 31 10q26 26 91.5 89t101.5 98q41 40 99 40h249q29 0 29 28v332q0 28 -29 28h-566q-15 0 -22 -7t-7 -22v-281v0zM929 188v282v3v3q0 2 -1 3q-4 19 -27 19h-39h-40h-39q-8 0 -8 -8q1 -25 0.5 -72.5t0.5 -72.5q0 -18 -6 -33t-19 -27
q-13 -13 -28.5 -19t-34.5 -6h-24h-24h-23h-25h-23h-132q-31 0 -52 -20q-25 -24 -76 -74q-3 -2 -3 -7v-25q0 -21 21 -24q3 -1 6 -1h7h244q57 0 97 -39l102 -98q61 -60 93 -90q12 -12 26 -10q12 1 19.5 10t7.5 22v284v0zM541 454q0 18 13 31t31.5 13t31.5 -13.5t13 -31.5
q0 -19 -13.5 -31.5t-31.5 -12.5t-31 13t-13 32v0zM228 498q12 0 22 -6t16 -16.5t6 -22.5q0 -18 -13 -31t-31 -13q-9 0 -17.5 3.5t-14.5 9.5t-9.5 14.5t-3.5 17.5q0 18 13 31t32 13v0zM362 454q0 19 13.5 31.5t31.5 12.5q12 0 22.5 -6t16 -16.5t5.5 -22.5q0 -18 -13 -31
t-31 -13q-19 0 -32 13t-13 32zM362 454z" />
    <glyph glyph-name="uniE687" unicode="&#xe687;" 
d="M829 783h-605l-173 -297v-119q0 -52 30 -89l1 -328q0 -49 36 -84t87 -35h644q51 0 87.5 35t36.5 84v328q16 18 23 38.5t7 50.5v119zM914 105v-155q0 -16 -9.5 -29.5t-24.5 -21.5t-31 -8h-644q-26 0 -45 17.5t-19 41.5v25v128l-1 145h59q26 0 57.5 20.5t46.5 51.5
q12 -21 30 -37.5t39.5 -25.5t42.5 -9q34 0 66.5 18.5t45.5 47.5q8 -19 25.5 -34t40 -23.5t44.5 -8.5q21 0 43 10t40 27t29 39q25 -40 46 -58t59 -18h60v-143v0zM944 367q-1 -29 -28 -44.5t-62 -15.5t-63 18.5t-28 41.5h-28q0 -22 -32 -41t-67 -19q-21 0 -43.5 9t-37 23
t-14.5 28h-29q0 -15 -14.5 -29t-37 -22.5t-44.5 -8.5q-17 0 -34.5 4t-31.5 11.5t-23 19t-9 25.5h-28q0 -23 -28.5 -42t-61.5 -19q-12 0 -22.5 2t-20.5 5t-18.5 8t-14.5 11.5t-9.5 15.5t-3.5 19v59h833v-59zM112 486l138 238h553l141 -238h-832z" />
    <glyph glyph-name="uniE688" unicode="&#xe688;" 
d="M512 744q45 0 89.5 -9t85 -26t78 -42t69.5 -57q43 -43 73 -94.5t45.5 -109t15.5 -118.5q0 -91 -34.5 -174.5t-99.5 -147.5q-43 -43 -94.5 -73t-109 -45.5t-118.5 -15.5t-118.5 15.5t-109 45.5t-94.5 73q-65 64 -99.5 147.5t-34.5 174.5t34.5 174.5t99 148t148 99
t174.5 34.5zM512 797q-68 0 -132.5 -17t-122 -50.5t-105.5 -81.5t-81.5 -105.5t-50.5 -122t-17 -132.5q0 -102 38.5 -195t110.5 -165t165 -110.5t195 -38.5t195 38.5t165 110.5t110.5 165t38.5 195t-38.5 195t-110.5 165t-165 110.5t-195 38.5zM653 538q-51 45 -132 45
q-93 0 -146.5 -54.5t-53.5 -148.5q0 -4 1.5 -8.5t4 -8.5t6 -7.5t7.5 -5.5t8.5 -3.5t9.5 -1.5q15 0 25.5 10.5t11.5 24.5v1v1v1q1 138 122 138q47 0 77.5 -27t30.5 -69q0 -25 -14 -50t-43 -51l-28 -24q-20 -19 -33.5 -35t-19.5 -29q-11 -28 -11 -88v-3q0 -7 2.5 -13.5t7 -11
t11 -7.5t13.5 -3q14 0 24 9.5t11 22.5v13q0 31 15 58.5t44 51.5q20 17 36 32.5t27.5 31.5t19.5 31t12 30.5t4 29.5q0 73 -50 118zM465 25q0 -19 14 -33t33 -14t33 14t14 33t-14 33t-33 14t-33 -14t-14 -33z" />
    <glyph glyph-name="uniE689" unicode="&#xe689;" 
d="M979 799h-934q-14 0 -24.5 -10t-10.5 -25v-928q0 -15 10.5 -25t24.5 -10h934q3 0 6.5 0.5t7 2t6 3.5t5.5 4v0v1q3 2 4.5 5t2.5 6q2 2 2.5 5t0.5 6v1v1v928q0 15 -10.5 25t-24.5 10zM81 678l379 -376l-379 -380v756zM280 581l-148 147h295zM516 716l178 -179l-184 -185
l-179 179zM510 251l382 -379h-761zM561 302l184 184l198 -198v-366zM943 389l-173 173v0l-166 166h339v-339v0z" />
    <glyph glyph-name="uniE68A" unicode="&#xe68a;" 
d="M909 606l-327 186q-32 18 -70 18t-71 -18l-326 -186q-11 -6 -21 -14t-18 -17.5t-14 -20t-10.5 -22t-6.5 -24t-2 -25.5v-368q0 -38 19 -71t53 -52l326 -185q33 -19 71 -19q9 0 18 1t18 3.5t17.5 6t16.5 8.5l327 185q33 19 52.5 52t19.5 71v368q0 38 -19.5 71t-52.5 52z
M548 -134q-17 -9 -36.5 -9t-36.5 9l-240 136q26 14 46 16q7 1 19 3t20.5 4t24.5 6t27 7q58 13 77 30q6 5 9 12t3 14q0 35 -22 64q-1 2 -2.5 4t-3 3.5t-3.5 2.5q-35 27 -55 70.5t-20 94.5q0 80 46 136.5t111 56.5t111 -56.5t46 -136.5q0 -25 -5 -49t-14.5 -45t-23.5 -39
t-31 -31q-4 -3 -6 -6q-25 -31 -26 -67q0 -7 3 -14t9 -12q8 -6 24.5 -13t52.5 -15q12 -3 25 -5.5t24.5 -4.5t22.5 -3.5t18 -2.5q9 -1 18.5 -3.5t19 -6t18.5 -8.5zM912 115q0 -20 -10 -37t-28 -27l-10 -5v1q-52 42 -116 47q-30 3 -80 15q-9 1 -16 3t-13 4l1 1q47 37 72.5 94
t25.5 122q0 108 -66 185t-160 77q-61 0 -113 -35t-82.5 -95.5t-30.5 -131.5q0 -65 26 -122t71 -93q2 -3 4 -5q-14 -5 -31 -9q-6 -1 -12.5 -2.5t-15.5 -3.5q-6 -2 -10 -3l-10 -3l-10 -2q-4 -1 -8.5 -1.5t-8.5 -1.5t-6 -1q-54 -4 -106 -46l-20 11q-17 10 -27 27t-10 37v368
q0 20 10 37t27 27l326 185q17 10 37 10q4 0 9 -1t9.5 -2t9 -3t8.5 -4l326 -185q18 -10 28 -27t10 -37v-368z" />
  </font>
</defs>
</svg>
